<svg width="1142" height="47" viewBox="0 0 1142 47" fill="none" xmlns="http://www.w3.org/2000/svg">
<path d="M25.6341 22.2628C49.4983 19.9901 65.8018 22.4035 87.9387 22.7843C136.677 23.6222 200.952 22.8254 250.803 22.8028C288.559 22.7881 326.854 22.8597 364.382 22.8546C366.304 22.8541 367.451 23.099 368.321 23.0989C376.52 23.0985 390.278 22.8174 398.444 22.8138C415.542 22.8101 445.384 22.6142 461.082 22.7471C467.728 22.8049 474.571 22.8007 477.173 23.376C479.61 23.3898 480.933 22.8448 481.568 22.8112C481.575 22.8117 481.583 22.8122 481.59 22.8127C483.641 22.7082 488.771 23.0475 489.932 23.0156C490.103 23.0107 489.046 22.6303 491.827 22.7274C492.074 22.7356 491.848 23.0012 494.186 22.9878C494.798 22.9845 502.59 22.5213 504.802 22.479C512.232 22.3423 529.931 22.5116 538.793 22.4229C540.144 22.4105 540.92 22.2489 542.343 22.2329C543.077 22.2244 544.186 22.3815 544.417 22.3784C545.423 22.3631 549.786 21.5602 548.232 23.0768C552.791 22.9375 551.44 22.4539 551.541 22.1306C556.479 22.0356 558.848 22.7185 560.123 21.956C583.476 21.8047 606.825 21.6137 630.162 21.3676C631.096 21.3577 632.028 21.3478 632.959 21.3377C632.965 21.2154 632.97 21.0932 632.976 20.9709C640.175 21.3543 642.588 20.4911 646.649 21.1376C649.19 20.9423 651.719 20.7464 654.236 20.55C718.951 19.9908 783.493 17.9376 847.398 15.7565C850.103 15.6635 850.795 15.9004 855.199 15.7476C860.184 15.5742 866.984 15.0264 873.511 14.7842C879.123 14.5766 887.52 14.4964 893.903 14.2755C895.334 14.2258 896.354 14.0192 896.514 14.0136C897.455 13.9816 897.512 14.2401 898.421 14.2101C899.496 14.1741 900.837 13.9253 902.114 13.8839C906.888 13.7281 911.976 13.4413 912.612 13.418C915.519 13.3164 916.156 13.543 916.395 13.5354C919.592 13.4255 918.38 13.2484 919.174 13.2266C923.353 13.1108 926.291 13.5537 931.959 12.7379C931.813 12.9581 931.667 13.1783 931.52 13.3985C935.904 13.3136 932.986 12.883 933.875 12.7387C934.238 12.6855 943.59 12.3067 944.322 12.2789C946.831 12.1925 946.904 12.4721 947.121 12.4653C947.591 12.4519 954.023 11.8086 957.199 11.8914C961.083 11.9842 956.548 12.7956 957.519 12.8537C957.687 12.8638 961.736 12.5942 962.275 12.746C962.884 12.9086 959.401 13.0867 959.454 13.1651C959.509 13.219 965.285 13.3159 964.193 13.6428C963.349 13.9596 955.446 14.0236 953.833 14.2309C953.561 14.2657 954.092 14.5725 953.851 14.597C952.855 14.7003 934.832 15.5901 934.016 15.5662C934.951 15.3702 935.881 15.1743 936.807 14.9783C935.565 15.022 934.316 15.0655 933.06 15.109C934.84 14.9039 936.604 14.6986 938.354 14.4931C935.712 13.3697 927.736 15.009 927.482 15.644C927.358 15.9387 932.199 16.4586 927.743 17.0967C928.429 17.1393 929.113 17.1819 929.794 17.2245C931.21 17.0373 932.647 16.8485 934.059 16.6603C933.109 16.6282 932.155 16.596 931.197 16.5637C931.545 16.4608 931.891 16.3578 932.237 16.2548C934.907 15.9908 937.511 15.7281 940.148 15.4619C941.529 15.4596 941.255 15.7292 942.2 15.7329C953.868 15.7846 946.241 15.3666 953.903 15.0964C954.998 15.1785 956.088 15.2605 957.171 15.3425C956.726 14.7957 960.213 14.975 964.257 14.515C963.781 14.7245 963.305 14.934 962.827 15.1435C968.723 14.7401 980.824 14.9938 977.517 14.1605C978.887 14.1708 980.246 14.181 981.594 14.1912C982.703 13.9617 983.871 13.7284 985.014 13.496C986.612 13.4228 988.194 13.3495 989.759 13.2763C989.771 13.3656 989.784 13.455 989.796 13.5443C988.549 13.6184 987.291 13.6925 986.023 13.7666C986.991 13.9849 987.953 14.2032 988.909 14.4215C989.834 14.3216 990.734 14.2229 991.69 14.1205C987.741 14.0948 992.911 13.3651 994.14 12.928C997.417 12.5969 999.541 12.9358 1000.67 12.8874C1001.21 12.865 1007.21 11.6572 1004.9 12.7151C1005.12 12.6927 1005.35 12.6703 1005.57 12.6479C1008.57 12.3556 1011.36 12.0717 1014.33 11.7725C1015.58 11.7599 1016.81 11.7474 1018.03 11.7349C1015.42 12.3365 1023.11 12.3285 1017.48 12.8854C1013.24 13.3019 1012.13 12.9758 1010.14 13.1079C1008.41 13.2215 1007.47 13.5244 1005.64 13.6743C1005.55 13.6817 1005.46 13.6888 1005.36 13.6954C992.073 14.6086 981.169 15.1872 968.476 15.7549C965.909 15.8694 963.722 16.1161 962.021 16.187C960.115 16.2656 962.488 15.8062 960.058 16.0146C957.487 16.2345 956.971 16.5342 956.305 16.5739C955.892 16.5982 954.566 16.4198 953.347 16.4816C948.263 16.7406 941.038 17.3292 940.27 17.3641C939.495 17.4032 925.297 17.8441 924.629 17.8296C924.265 17.824 924.983 16.8831 921.878 17.9919C920.891 18.0542 919.914 18.1158 918.955 18.1764C919.104 17.9882 919.252 17.8 919.4 17.6118C913.698 18.5523 915.659 18.0813 910.053 18.3777C896.735 19.0848 877.099 19.7068 862.511 20.2933C859.27 20.4248 857.975 20.6885 854.151 20.8385C850.631 20.9773 841.161 20.6493 843.257 21.4766C835.345 20.964 833.994 22.3472 830.025 21.639C829.55 21.776 829.075 21.9129 828.599 22.0499C824.28 21.6652 822.912 22.1673 818.192 22.3764C816.171 22.4659 818.492 21.8396 814.417 22.5823C813.631 22.5601 812.845 22.5379 812.056 22.5156C812.235 22.3758 812.414 22.236 812.593 22.0962C808.018 22.3437 807.703 22.2821 808.247 22.7692C805.999 22.7444 803.86 22.7156 801.646 22.6882C801.378 22.8611 801.109 23.034 800.84 23.2068C801.877 23.5236 851.945 21.4681 858.901 21.0279C867.027 21.1168 883.544 20.0233 890.071 19.8468C892.74 19.7757 893.935 20.1015 897.758 19.9899C901.555 19.8793 906.465 19.3329 908.467 19.235C915.306 18.9215 947.572 17.496 925.648 18.9747C926.287 19.1278 926.925 19.2808 927.56 19.4338C936.238 18.4109 933.149 18.9375 940.342 18.6586C943.46 18.5374 950.579 17.7772 950.263 18.6197C944.644 19.0553 938.576 19.0834 933.678 19.3248C933.172 19.3504 927.38 19.9975 924.375 20.0301C921.671 20.0582 923.427 19.1921 917.639 20.3346C913.259 19.6628 910.683 20.5576 909.563 20.6891C907.593 20.918 907.358 20.5011 905.363 20.5358C903.187 20.5727 901.684 20.9184 901.385 20.9327C898.424 21.0673 882.894 21.7254 882.17 21.5773C882.794 21.4774 883.417 21.3775 884.038 21.2776C879.992 21.3132 880.846 21.7159 879.78 21.8094C878.98 21.8385 878.185 21.8673 877.408 21.8954C877.715 21.7932 878.021 21.691 878.326 21.5888C873.603 21.7875 877.258 21.9648 870.484 22.21C866.108 22.3673 861.777 22.1776 861.332 22.2191C861.209 22.2308 862.57 22.4148 860.819 22.509C857.904 22.6655 852.893 22.8352 852.335 22.5375C850.923 22.6314 851.053 22.9369 850.865 22.9505C850.029 23.0126 835.891 23.5948 833.304 23.6939C826.308 23.9719 818.423 24.1525 810.817 24.4325C810.029 24.4613 810.526 24.2475 809.735 24.2775C808.434 24.3272 802.024 24.8276 801.049 24.8772C798.649 25.0013 792.223 25.0591 791.267 25.1757C791.127 25.1925 793.21 25.4032 790.785 25.5543C788.087 25.7215 789.53 25.3197 789.384 25.3202C783.88 25.3487 780.316 25.6953 776.602 25.8422C775.387 25.8899 773.127 25.677 771.397 25.8022C771.198 25.8165 771.599 26.0576 771.404 26.075C768.791 26.2747 766.307 25.8711 765.205 25.8687C762.464 25.864 763.964 26.1706 763.821 26.1767C761.994 26.2337 759.524 26.1711 756.714 26.2564C744.261 26.6338 734.099 26.8881 720.827 27.149C719.173 27.1815 717.194 26.9801 716.939 26.9851C716.152 27.0034 716.386 27.2842 714.103 27.3252C709.244 27.4112 704.885 27.5127 700.115 27.6007C699.156 27.6183 698.741 27.3618 698.009 27.3703C695.509 27.4031 687.263 28.2509 687.094 27.3915C682.267 28.2438 678.95 27.6456 675.103 27.7207C665.867 27.9013 651.349 28.2936 642.145 28.3323C640.21 28.3404 639.296 28.1331 638.215 28.1373C637.183 28.141 633.547 28.2242 630.261 28.2959C627.437 28.3581 624.884 28.4118 624.614 28.3993C623.475 28.3481 624.155 27.3671 618.303 28.2937C614.86 28.4003 615.258 27.9956 614.545 27.9836C609.032 27.8965 603.68 28.8542 604.67 28.0257C598.222 28.3286 594.045 28.8292 591.43 28.0973C591.468 28.4692 588.456 28.7284 584.796 28.6285C588.529 27.9596 588.072 27.5667 597.067 27.5725C597.211 27.5726 596.94 27.8451 597.084 27.8452C598.384 27.8476 601.088 27.6784 603.289 27.6654C605.49 27.6523 604.271 27.8517 605.151 27.8371C605.956 27.8232 605.927 27.5659 607.091 27.5474C610.866 27.4891 614.176 27.3743 616.358 27.3406C617.721 27.3197 619.246 27.5256 620.3 27.5112C622.637 27.4784 626.461 27.3669 630.246 27.2677C633.113 27.1932 635.957 27.1255 638.165 27.1033C639.243 27.093 638.797 27.3539 641.15 27.3396C641.424 27.3379 642.424 27.058 644.474 26.9717C646.512 26.8856 648.138 26.9919 649.473 26.9436C650.588 26.9032 650.12 26.6753 652.402 26.6244C654.292 26.5869 675.795 26.3946 676.917 26.4079C678.575 26.4326 679.39 26.7485 680.421 26.6897C680.602 26.6778 680.904 26.3531 681.532 26.3189C691.806 25.7608 714.653 25.7455 726.367 25.4821C751.017 24.9387 773.549 24.1912 798.432 23.4063C798.874 23.3381 799.315 23.2698 799.756 23.2016C797.26 23.2714 794.681 23.3424 792.215 23.4093C792.195 23.2596 792.175 23.1099 792.155 22.9602C788.792 23.0303 789.242 23.3728 789.344 23.5846C788.092 23.5282 786.837 23.4718 785.577 23.4152C784.486 23.9694 776.144 23.8458 771.825 23.9576C769.009 24.0309 765.651 24.3159 764.199 24.3369C761.092 24.3831 761.159 24.0579 760.915 24.0589C760.501 24.062 756.145 24.455 752.959 24.5208C748.348 24.6159 747.847 24.1323 741.459 24.7021C733.316 24.6331 724.224 24.9629 715.477 25.1872C717.168 24.6936 709.189 25.2934 705.706 25.3552C684.036 25.7478 657.372 26.0101 635.395 26.1475C633.327 26.1611 631.618 26.0373 630.228 25.9817C629.722 25.9609 629.259 25.9495 628.837 25.9579C627.989 25.9745 627.624 26.2981 626.444 26.2726C626.237 26.2673 626.09 25.9717 623.89 25.9574C618.388 25.9227 604.747 26.5968 601.262 26.0672C582.517 26.3885 563.716 26.6792 544.946 26.9454C544.472 26.8282 543.993 26.7111 543.522 26.5938C540.027 27.2495 525.821 27.012 519.016 27.0967C506.899 27.2508 491.441 27.5598 480.884 27.6528C478.583 27.6732 476.692 27.5096 474.505 27.5278C473.565 27.5359 472.395 27.7723 471.414 27.7799C460.486 27.8695 445.634 27.7222 434.57 27.7868C409.492 27.9334 385.878 28.0008 360.465 28.1005C274.844 28.4348 189.722 28.8424 104.84 28.7312C103.703 28.7296 103.759 28.4667 102.878 28.4651C97.6796 28.4537 86.0383 28.6728 80.1663 28.6618C75.484 28.6534 68.0459 28.2523 66.4326 28.6572C83.0819 29.2682 100.651 29.2188 117.99 29.3841C119.221 29.3958 119.374 29.6457 119.526 29.6502C122.33 29.736 120.56 29.3925 124.624 29.3754C125.975 29.3698 138.549 30.1623 137.051 29.3686C140.053 29.6854 161.263 29.8324 165.345 29.7239C166.586 29.691 165.707 29.4563 165.954 29.4442C167.023 29.3915 167.506 29.7156 168.462 29.7233C171.014 29.7417 177.511 29.4736 178.742 29.4744C181.585 29.4751 190.063 29.7319 193.825 29.6661C197.262 29.606 196.618 29.2677 199.587 29.2336C201.926 29.2076 199.38 29.4954 204.6 29.576C207.181 29.6156 216.244 29.4014 218.447 29.3986C220.649 29.3959 223.097 29.5958 226.128 29.5763C230.48 29.5488 240.019 29.4225 244.459 29.3506C244.724 29.3465 245.37 29.0819 246.024 29.0864C247.378 29.0953 246.972 29.4216 247.994 29.453C248.996 29.4849 266.772 29.4151 269.763 29.4125C271.835 29.4105 273.266 29.2137 274.418 29.2132C275.32 29.2133 275.417 29.4843 276.338 29.4856C276.623 29.485 279.047 29.2446 281.466 29.2452C283.755 29.2462 292.414 29.4515 293.417 29.4512C294.074 29.4507 293.354 29.2596 295.294 29.2598C297.061 29.2605 298.221 29.508 299.228 29.5094C301.562 29.5121 304.169 29.2924 306.64 29.2853C313.742 29.2649 313.37 29.5755 313.8 29.5846C314.987 29.6095 315.462 29.3243 315.851 29.3174C317.496 29.2893 321.52 29.226 322.981 29.2109C324.802 29.1922 325.574 29.4599 327.506 29.4554C328.95 29.4511 331.838 29.1797 335.139 29.157C342.591 29.1046 351.342 29.0267 358.663 29.0113C360.839 29.0064 361.172 29.2516 361.837 29.2556C365.327 29.2771 367.275 28.9944 368.269 28.9944C375.34 28.9935 388.059 29.3748 394.624 29.3827C397.333 29.386 409.05 29.1341 415.689 29.1371C416.45 29.1371 415.738 29.3337 416.585 29.2993C418.608 29.217 418.418 28.8246 419.443 28.8314C419.938 28.8359 421.067 29.052 422.506 29.0668C429.957 29.1437 435.086 28.9433 438.503 28.9365C471.206 28.8715 504.522 28.74 535.073 28.4983C538.489 28.4711 542.636 28.199 547.829 28.3763C547.989 28.4969 548.148 28.6176 548.308 28.7383C548.487 28.6165 548.667 28.4946 548.846 28.3728C554.684 28.2511 556.852 28.075 562.793 28.1669C563.308 28.1744 564.885 28.7159 565.849 28.0129C571.756 28.4524 568.515 27.9808 572.881 27.8871C577.229 27.7933 581.485 27.9003 585.739 27.8861C588.082 28.1076 578.273 28.7921 577.668 28.7963C576.651 28.8054 575.588 28.4726 574.606 28.465C571.698 28.4421 568.873 28.7455 568.214 28.445C564.436 28.81 569.142 28.5979 568.672 28.8956C566.151 28.8012 563.611 28.7066 561.086 28.6113C559.842 29.6212 545.912 28.4593 546.875 29.2075C545.763 29.0663 544.645 28.9251 543.534 28.7837C538.717 29.7801 535.867 29.1366 529.37 28.9109C529.84 29.0284 530.309 29.1459 530.779 29.2634C530.649 29.3155 524.908 29.56 526.957 29.0239C521.105 29.7572 521.364 28.619 516.118 29.4836C512.995 29.6145 514.876 29.1225 509.269 29.1756C505.935 29.2067 501.879 29.4875 498.173 29.5327C497.321 29.5423 496.948 29.2689 496.19 29.2746C495.431 29.2803 495.063 29.5538 494.142 29.5674C492.243 29.5961 489.767 29.4239 488.58 29.4507C487.524 29.4739 486.016 29.7235 483.463 29.7789C474.535 29.9732 477.222 29.6132 475.81 29.5075C474.289 29.3949 473.199 29.8516 470.159 29.8193C469.855 29.8158 470.636 29.5307 469.653 29.5481C468.862 29.5618 468.467 29.8688 465.841 29.9423C464.822 29.9728 448.467 30.1374 446.028 30.1558C442.246 30.186 433.729 29.9751 429.809 29.9972C428.298 30.0052 426.683 30.258 425.074 30.2646C419.747 30.2865 411.16 30.3077 404.418 30.3263C398.318 30.3435 387.605 29.8494 384.279 30.3495C375.718 30.4472 373.611 30.0383 372.973 30.0352C371.234 30.0262 370.43 30.305 368.235 30.3259C339.749 30.5933 302.21 30.5098 275.219 30.5827C212.612 30.7578 149.67 30.9441 86.8338 30.8442C86.6654 30.9664 86.497 31.0886 86.3286 31.2108C93.7631 31.2883 102.476 31.4985 109.814 31.5449C119.605 31.6062 134.121 31.0915 141.3 31.923C138.39 31.9977 133.645 31.6796 133.73 32.109C138.938 32.1374 144.135 32.1655 149.339 32.1933C149.183 31.9951 149.028 31.7968 148.872 31.5985C154.314 31.5378 159.873 31.5777 165.32 31.5456C166.266 31.5403 165.596 31.3607 166.42 31.3592C167.342 31.3579 166.717 31.5416 166.89 31.543C169.218 31.5432 169.924 31.3573 170.209 31.3597C170.941 31.3665 170.372 31.5434 172.48 31.5913C176.391 31.6808 179.186 31.2097 178.27 31.9916C179.531 31.9906 180.791 31.9896 182.052 31.9885C182.378 31.7756 182.704 31.5627 183.03 31.3498C190.773 32.2018 194.363 30.6923 198.65 31.883C200.063 31.6992 201.476 31.5152 202.888 31.3313C203.685 31.5431 204.481 31.7549 205.277 31.9667C205.432 31.7841 205.587 31.6014 205.741 31.4188C213.335 31.5453 221.48 31.3165 228.742 31.3279C233.802 31.3358 235.038 31.4061 239.531 31.3859C249.525 31.3399 239.604 31.717 247.902 32.0953C247.47 31.8722 247.038 31.6492 246.606 31.4261C247.98 31.342 249.353 31.2578 250.725 31.1736C251.68 31.3546 252.638 31.5355 253.599 31.7164C257.855 30.7629 260.608 31.5221 261.186 31.5211C261.653 31.5186 263.26 30.9461 268.281 31.4195C266.199 30.6443 272.109 31.4078 272.581 31.4114C273.033 31.4137 278.809 31.2285 281.148 31.231C282.989 31.2328 286.913 31.3923 289.647 31.3781C292.061 31.3655 291.815 31.1015 291.991 31.0984C294.964 31.0698 293.103 31.2795 295.259 31.2847C297.417 31.2898 299.088 31.0605 299.554 31.0796C299.788 31.0898 299.006 31.338 300.077 31.3592C302.955 31.4174 308.148 31.1891 311.428 31.1871C312.59 31.1861 314.06 31.3913 315.364 31.3943C317.36 31.3982 318.291 31.1181 319.45 31.1232C319.853 31.1258 322.426 31.5477 325.616 31.4728C326.223 31.4579 328.003 30.5455 330.371 31.8243C330.553 31.6428 330.735 31.4614 330.917 31.28C341.625 30.8007 344.622 32.2601 349.366 30.9405C357.118 31.0605 351.798 31.5862 352.65 31.6612C353.193 31.7086 355.741 31.5603 356.019 31.5673C356.514 31.5812 356.43 31.7445 356.971 31.7418C366.898 31.677 362.487 31.3843 365.625 31.178C373.075 30.6864 378.882 31.6954 365.931 31.434C365.931 31.525 365.931 31.616 365.932 31.7069C369.122 31.6086 377.226 31.6189 374.52 32.0907C372.395 32.4634 353.152 32.2946 364.056 32.7658C366.531 32.8723 367.812 32.5263 372.087 33.1504C374.911 33.1745 375.335 32.3435 379.179 32.6613C378.546 32.3745 377.912 32.0876 377.278 31.8008C382.526 31.4033 388.977 31.8827 392.978 31.7034C394.35 31.6424 399.279 30.2414 398.134 31.6256C400.445 31.5298 411.24 31.7343 413.245 31.6006C413.729 31.5683 414.367 30.8315 421.371 31.053C421.858 31.1426 422.345 31.2322 422.831 31.3217C416.434 31.6214 427.733 31.8363 424.668 32.5486C423.627 32.2408 418.549 32.0752 417.728 31.9216C416.329 31.6574 420.491 31.2876 415.185 31.4088C411.845 32.5896 421.406 32.007 419.948 33.1199C426.897 32.5689 427.583 33.0573 429.153 33.0697C435.859 33.1178 440.136 32.9771 446.457 33.07C448.004 32.8343 436.526 32.5711 435.089 32.6763C440.341 31.8427 431.279 31.8558 427.513 32.3531C427.193 32.1114 426.874 31.8697 426.554 31.628C431.476 31.7345 436.341 31.7762 441.24 31.5492C441.56 31.6384 441.88 31.7276 442.199 31.8167C441.101 31.9599 440.001 32.103 438.9 32.2461C442.982 32.4478 440.535 31.7521 445.962 32.3429C446.129 32.0679 446.295 31.793 446.461 31.518C451.629 31.5793 456.899 31.6387 462.095 31.6973C464.797 31.1315 474.808 31.2707 472.985 31.9939C477.044 32.0172 472.032 31.6719 475.832 31.4735C477.486 31.3873 480.71 31.3442 481.507 31.5301C481.17 32.2099 476.344 32.3269 474.881 32.8017C475.785 32.948 498.199 32.3049 496.218 33.1099C498.012 33.1918 497.187 32.7899 500.415 32.661C509.424 32.3022 523.478 32.9927 530.785 31.9151C522.155 31.4276 519.72 32.044 513.128 32.1217C508.889 32.1751 483.376 32.4592 489.062 31.7007C488.123 31.7984 487.194 31.896 486.259 31.9936C485.313 31.7871 484.365 31.5806 483.417 31.374C486.088 31.3247 488.73 31.2752 491.429 31.225C492.072 31.4329 492.714 31.6409 493.356 31.8488C493.65 31.6949 493.945 31.5409 494.239 31.3869C495.367 31.3485 496.494 31.3099 497.62 31.2713C497.305 31.4562 496.99 31.641 496.675 31.8259C498.412 31.8441 500.146 31.8623 501.877 31.8802C501.409 31.6399 500.941 31.3997 500.473 31.1594C508.626 31.0354 505.843 31.2094 510.404 31.6294C513.799 31.6488 508.066 31.2265 515.238 31.0492C523.566 30.8418 518.079 31.6338 528.876 31.3813C529.03 31.2582 529.185 31.1352 529.34 31.0122C531.721 31.113 534.095 31.2134 536.464 31.3136C536.15 31.1651 535.835 31.0167 535.521 30.8683C540.403 30.883 547.133 30.5303 548.776 31.1078C543.796 30.8699 543.847 31.9053 545.148 32.0836C547.858 32.4577 587.164 31.6823 594.764 31.5535C604.568 31.4021 611.827 31.6406 620.801 31.0085C614.7 30.6774 593.513 31.2857 589.524 31.0398C589.125 31.0161 589.228 30.065 586.679 31.1634C578.365 31.0786 568.585 31.4885 558.251 31.5617C558.561 31.2851 558.872 31.0085 559.182 30.7319C565.511 31.2494 571.399 29.9082 570.576 30.9796C571.836 30.966 573.095 30.9524 574.351 30.9387C574.349 30.7557 574.347 30.5727 574.345 30.3897C576.244 30.369 578.114 30.3482 580.027 30.3268C580.029 30.5098 580.031 30.6928 580.034 30.8758C581.618 30.858 583.2 30.8401 584.778 30.8219C584.94 30.6376 585.102 30.4532 585.265 30.2688C589.984 30.5957 606.037 29.3844 598.974 30.5612C601.201 30.5339 603.42 30.5062 605.633 30.4781C605.624 30.3444 605.615 30.2106 605.606 30.0769C606.557 30.0469 607.506 30.0168 608.454 29.9866C608.144 30.1117 607.833 30.2368 607.522 30.362C611.856 30.0895 616.005 30.6721 618.88 30.2141C616.986 30.1482 615.077 30.0821 613.182 30.0155C616.833 30.1418 623.512 29.6902 624.102 29.6808C625.918 29.6538 626.877 29.9109 628.836 29.8969C629.694 29.8904 630.077 29.8389 630.282 29.7879C630.504 29.7338 630.521 29.6803 630.693 29.6816C640.363 29.7533 636.689 30.9317 641.153 29.5328C641.631 29.7076 642.109 29.8824 642.587 30.0571C643.217 29.8957 643.846 29.7343 644.474 29.5729C647.259 29.5446 650.171 29.5135 653.001 29.4827C652.05 29.2704 651.097 29.058 650.142 28.8455C654.414 28.6767 656.391 29.1004 656.804 29.1042C657.966 29.1119 658.491 28.817 658.85 28.8106C676.168 28.5466 665.677 28.9742 674.331 29.9007C677.394 29.4248 674.281 29.0565 673.837 28.6349C677.919 28.7646 679.193 28.6231 683.555 28.5676C684.686 28.5535 685.904 28.7627 686.615 28.7527C687.232 28.744 689.15 28.4623 690.62 28.4336C693.054 28.386 696.362 28.4697 699.75 28.3998C702.574 28.3415 711.105 27.9974 717.136 27.8682C719.69 27.8145 719.1 28.0327 719.758 28.0193C720.032 28.0135 722.01 27.7248 723.633 27.6888C737.088 27.3935 750.682 27.2332 764.177 26.8884C773.654 26.6467 783.297 26.1921 792.735 25.9475C794.732 25.8959 793.683 26.1065 794.568 26.088C794.872 26.0809 795.239 25.755 798.378 25.7923C799.51 25.8057 798.216 26.0638 799.328 26.0429C799.867 26.0325 800.096 25.7493 803.235 25.5948C808.886 25.3146 812.088 25.5863 812.575 25.5608C813.54 25.5104 813.252 25.2899 814.528 25.2429C820.69 25.0154 826.057 24.8078 831.547 24.6113C834.206 24.5215 852.153 23.8697 853.126 23.8722C855.32 23.8871 853.294 24.437 856.105 24.3218C856.904 24.1724 857.7 24.023 858.494 23.8735C857.227 23.8265 855.927 23.7804 854.692 23.7316C858.16 23.764 862.132 23.4037 864.67 23.3194C865.128 23.3049 869.511 23.3614 871.752 23.2537C870.806 23.379 869.857 23.5042 868.905 23.6294C869.246 23.6935 869.586 23.7577 869.926 23.8218C874.413 23.5391 879.043 23.3662 883.66 23.2027C885.307 23.1441 884.759 23.352 886.418 23.2932C896.119 22.9468 893.636 22.272 903.044 23.338C899.859 23.3421 888.328 23.993 886.71 24.0059C885.558 24.0178 880.978 22.966 882.69 24.1616C873.295 24.5175 881.428 23.5109 872.739 23.9917C872.919 24.139 873.098 24.2863 873.278 24.4336C870.254 24.6442 867.937 24.8072 866.12 24.6019C865.576 25.3703 855.149 25.3095 849.541 25.551C841.3 25.9069 832.088 26.3918 823.997 26.6777C821.194 26.7766 819.565 26.5339 819.229 26.5452C818.723 26.563 817.304 26.8631 816.287 26.896C812.481 27.0217 800.843 26.9311 797.965 27.7234C820.694 27.0737 843.452 26.3424 866.132 25.513C863.23 25.2757 886.298 24.3731 887.42 24.3368C888.49 24.3102 887.599 24.5911 887.918 24.5935C890.26 24.6062 892.358 24.1654 893.105 24.1353C893.685 24.1119 894.866 24.2316 896.911 24.1443C897.286 24.1285 897.383 23.9477 897.785 23.9306C900.41 23.823 903.139 23.7119 905.814 23.598C905.978 23.5928 906.667 23.822 907.342 23.7937C908.02 23.7649 908.676 23.4788 908.846 23.4707C910.943 23.3833 914.731 23.3868 916.751 23.2995C917.458 23.2683 916.96 23.1011 917.751 23.068C920.188 22.9647 919.354 23.3723 922.417 23.1397C923.436 23.0617 923.361 22.7821 925.305 22.7312C926.679 22.6953 926.553 23.2057 926.771 23.2141C927.074 23.2228 931.759 22.6085 933.358 22.8634C929.991 23.8932 937.081 22.7342 936.708 22.3829C938.578 22.3869 940.441 22.3903 942.352 22.3903C942.992 22.2661 943.631 22.1418 944.267 22.0175C951.807 22.0678 956.441 21.5807 963.929 21.3162C964.265 21.3059 970.584 21.1746 970.296 21.3204C966.488 21.7525 962.828 21.9555 960.366 21.6666C956.369 22.6685 956.407 22.0349 949.944 22.4648C947.788 22.6081 947.678 22.8288 947.427 22.8441C939.055 23.3692 925.84 24.074 920.122 23.6951C918.549 23.936 924.24 23.7489 922.032 23.9735C920.89 24.1099 891.942 25.5333 901.173 24.4182C900.195 24.4789 899.264 24.5375 898.314 24.5966C897.402 25.3203 892.633 25.3568 893.143 24.6531C892.696 24.8109 892.248 24.9687 891.799 25.1264C890.913 25.2803 889.821 25.3873 888.376 25.4821C882.717 25.8708 849.039 26.8578 847.257 26.9997C847.222 27.1628 847.186 27.326 847.151 27.4892C862.033 27.1632 876.448 26.2325 892.705 26.0429C892.225 25.9103 891.744 25.7777 891.262 25.6451C897.764 25.5975 904.277 25.5401 910.692 25.4771C903.934 26.0446 892.951 26.7271 885.788 26.78C884.512 26.7897 885.438 26.5415 885.144 26.5274C884.374 26.4908 883.57 26.8902 880.794 27.0331C877.988 27.1779 871.137 27.1748 870.468 27.2063C869.228 27.2676 865.939 27.8093 863.874 27.8786C861.143 27.9701 862.964 27.6439 862.416 27.6583C860.144 27.7146 858.095 27.9165 856.291 27.961C853.672 28.0253 848.177 27.7576 846.325 28.4922C848.231 28.458 850.126 28.4235 852.009 28.3888C841.714 28.9866 833.701 28.3914 823.653 29.3701C821.376 30.2553 829.743 29.8823 822.675 30.4517C823.964 30.3998 825.247 30.3477 826.527 30.2955C826.821 30.1158 827.115 29.936 827.409 29.7563C829.623 29.8076 831.768 29.8603 834.025 29.9085C833.385 29.7775 832.744 29.6464 832.102 29.5153C840.004 29.1457 847.819 28.7227 850.607 29.4425C850.761 29.2397 850.915 29.037 851.069 28.8342C858.283 28.8267 869.202 27.5893 867.182 28.7615C867.515 28.6911 867.866 28.6199 868.211 28.549C872.648 28.6095 870.736 28.2257 872.392 28.1128C872.883 28.0811 881.342 27.9938 877.611 28.462C885.976 28.3904 883.36 27.4626 885.649 27.3286C890.927 27.6322 900.561 26.4739 896.551 27.4418C897.343 27.4397 898.132 27.4375 898.918 27.4353C901.463 26.698 904.138 27.3021 906.95 27.4221C907.904 27.396 908.854 27.3698 909.801 27.3435C910.422 27.1041 911.058 26.8639 911.699 26.6234C920.807 27.2402 917.745 24.6018 921.993 26.7407C921.353 26.9087 920.702 27.077 920.082 27.2439C918.584 27.3768 917.076 27.5095 915.557 27.6422C921.636 27.4375 927.799 27.2201 933.954 26.9928C941.735 27.2785 946.105 26.3593 954.831 26.4338C955.634 26.331 956.434 26.2282 957.23 26.1253C956.447 26.6926 953.31 26.7767 959.148 26.7129C959.645 27.0602 955.743 27.3098 953.925 27.1154C953.488 27.0678 957.163 26.5958 953.013 26.7961C950.189 26.9304 955.315 27.1238 946.868 27.3775C947.184 27.453 947.499 27.5285 947.814 27.6041C946.906 27.6463 945.994 27.6885 945.078 27.7307C944.254 27.5603 943.426 27.3899 942.595 27.2194C940.48 27.6259 939.365 28.1075 934.573 28.2426C935.866 28.0496 934.09 27.7105 931.695 27.8291C931.702 27.9812 931.709 28.1334 931.716 28.2856C925.992 28.6483 927.98 28.1094 923.202 28.6752C922.716 28.5758 922.229 28.4764 921.74 28.3771C919.191 28.9931 909.613 29.7488 911.322 28.9252C908.688 29.7672 903.06 29.6762 900.899 29.1831C900.742 29.341 900.585 29.4989 900.428 29.6568C899.327 29.7331 898.225 29.8092 897.115 29.8852C896.492 29.8191 895.868 29.753 895.242 29.6868C894.456 29.8103 893.666 29.9338 892.875 30.0573C892.389 29.9249 891.902 29.7925 891.414 29.6601C890.129 29.8937 888.879 30.1255 887.627 30.3571C886.851 30.2665 886.073 30.1759 885.292 30.0852C885.246 30.4049 877.465 30.7765 875.359 30.6468C874.724 30.7629 874.088 30.879 873.45 30.995C873.131 30.8561 872.812 30.7172 872.492 30.5783C872.019 30.7167 871.544 30.8551 871.069 30.9935C869.959 30.9141 868.845 30.8346 867.727 30.755C863.312 31.6564 863.132 31.013 862.112 31.0546C860.217 31.1321 853.727 31.8245 852.676 31.8366C851.6 31.85 851.071 31.6029 850.199 31.6081C835.765 31.6834 841.76 32.1888 838.869 32.3993C837.317 32.5121 836.204 32.301 834.821 32.3737C832.416 32.5003 820.652 33.2 819.907 33.1891C818.916 33.1735 821.201 31.9355 818.01 32.3347C817.933 32.9646 811.017 32.5417 814.268 33.3174C811.436 33.3265 808.522 33.3368 805.702 33.3429C806.043 34.0759 802.558 33.7008 798.722 33.8518C793.228 34.0693 781.151 34.8868 781.524 34.1133C780.211 34.3237 778.955 34.5324 777.665 34.7417C768.782 34.7371 760.105 35.2072 751.259 35.4285C725.159 36.0848 696.716 36.4967 670.719 36.7928C669.466 36.8069 669.642 36.5549 668.739 36.5649C663.929 36.6209 651.734 36.9962 645.051 37.0423C642.943 37.0571 641.908 36.8298 641.236 36.8288C638.955 36.8237 639.497 37.1354 638.445 37.1419C637.437 37.148 633.798 37.0889 630.386 37.0432C628.217 37.0131 626.146 36.9887 624.959 36.993C623.465 36.9984 621.698 37.2769 619.939 37.2223C619.788 37.218 620.063 36.9522 619.935 36.9494C616.729 36.9607 618.66 37.161 617.575 37.1637C609.835 37.1825 601.619 37.2817 593.248 37.3277C591.181 37.3387 588.004 37.1913 586.217 37.1945C585.535 37.1962 586.761 37.3809 584.404 37.3915C583.596 37.3951 583.316 37.1398 582.403 37.1334C578.448 37.1077 577.187 37.9522 573.818 37.3209C567.327 37.4363 556.012 37.7655 550.085 37.8269C548.68 37.8413 547.993 37.6953 546.65 37.7108C545.702 37.7217 544.007 37.9743 542.547 37.9908C541.076 38.0074 538.749 37.8038 535.906 37.8378C532.914 37.8732 529.176 38.0398 528.497 38.0449C527.677 38.0521 527.293 37.7709 526.472 37.7816C524.006 37.8123 517.44 38.1472 514.251 38.2032C510.831 38.263 508.767 38.1413 507.594 38.1533C506.515 38.1656 505.266 38.4154 504.774 38.4214C504.009 38.4309 503.826 38.1518 502.855 38.1616C501.266 38.1784 499.628 38.3673 497.238 38.3899C454.194 38.7981 412.041 38.8578 370.16 38.8101C365.504 38.8045 362.873 39.0109 355.979 38.9448C353.184 38.9177 354.353 38.6243 352.192 38.6862C351.227 38.7142 351.472 38.941 350.252 38.9561C344.861 39.0216 338.552 38.8294 336.202 38.8401C335.273 38.8439 334.196 39.1058 332.303 39.1151C318.135 39.1862 301.305 39.1559 286.039 39.2329C277.945 39.2741 265.707 39.4292 256.412 39.462C230.759 39.554 203.162 39.525 179.764 39.5692C144.431 39.6352 109.274 39.8856 74.0229 39.6073C90.5081 40.2307 112.979 40.1734 131.334 40.2332C184.366 40.4051 240.835 39.9893 295.191 39.8793C314.102 39.8415 337.968 39.7615 358.662 39.8338C359.603 39.8369 361.551 39.6312 363.581 39.645C364.013 39.6485 369.355 39.9918 371.149 39.9886C369.439 39.3503 376.496 39.8984 378.688 39.874C381.447 39.843 387.182 39.4979 393.601 39.6526C399.466 39.7922 397.847 40.047 398.171 40.0613C400.242 40.1527 400.962 39.7497 402.546 39.7022C408.959 39.5159 442.331 39.5783 451.555 39.5339C453.966 39.5233 454.034 39.7769 454.577 39.7745C456.014 39.7676 458.056 39.5043 460.35 39.4918C464.493 39.4699 469.216 39.6793 471.509 39.6652C477.007 39.6322 487.237 39.279 494.375 39.2205C496.369 39.2041 496.248 39.4694 497.15 39.4617C501.116 39.428 511.426 39.036 516.366 38.992C524.327 38.922 532.615 39.0207 540.705 38.8586C541.219 38.9718 541.733 39.085 542.247 39.1981C543.055 39.0668 543.857 38.9355 544.678 38.8039C558.48 38.7678 572.401 38.3571 586.107 38.2162C587.692 38.2002 595.461 38.3338 596.751 38.3186C597.84 38.3054 598.908 38.0001 600.519 38.0232C602.773 38.0549 600.663 38.6379 604.336 38.4326C605.322 38.3771 604.363 38.1511 606.342 38.0517C606.988 38.02 619.686 37.7565 620.383 37.7622C621.523 37.7744 622.544 38.2707 622.838 38.2777C624.364 38.3142 624.293 37.9235 625.314 37.8736C626.976 37.7915 628.914 37.8178 630.397 37.8557C631.625 37.8862 632.548 37.9244 632.77 37.9186C638.761 37.7607 649.787 37.2799 656.059 37.3627C656.92 37.3746 656.822 37.6678 656.973 37.6749C657.948 37.7195 658.547 37.3776 659.47 37.3548C664.398 37.237 672.362 37.3248 677.317 37.2932C677.892 37.2892 679.097 37.1079 680.147 37.1045C686.033 37.088 684.122 37.3784 684.459 37.3835C685.249 37.3962 686.632 37.0882 688.721 37.0318C694.035 36.887 704.517 36.7236 710.226 36.6281C714.599 36.5561 714.529 36.8807 714.817 36.8812C715.427 36.8802 717.118 36.5866 719.96 36.4971C725.411 36.3233 724.805 36.5899 727.077 36.5297C727.267 36.5255 726.933 36.284 729.447 36.2031C734.279 36.0486 745.179 36.0436 750.328 35.9064C752.312 35.8543 752.74 35.6039 754.81 35.5491C758.084 35.4621 765.358 35.5394 765.92 35.524C766.081 35.5199 766.426 35.235 767.374 35.2109C768.429 35.184 769.467 35.2995 770.25 35.2784C774.721 35.1602 782.257 34.4763 780.183 35.5176C781.584 35.2367 783.03 34.9543 784.445 34.6725C793.72 34.4689 802.705 34.1147 811.928 33.7881C814.001 33.7148 815.727 33.849 817.458 33.7869C819.136 33.7272 826.936 33.1741 828.185 33.1276C830.414 33.0492 843.543 32.5844 845.122 32.5502C848.327 32.4838 851.407 32.7846 852.687 32.6603C853.712 32.5604 852.756 32.3642 854.71 32.2307C858.11 31.9996 863.971 32.0834 864.987 32.0414C865.436 32.023 864.575 31.8762 868.75 31.7098C871.02 31.6187 872.234 31.7703 873.051 31.7389C873.301 31.7282 872.926 31.4235 877.344 31.2989C880.383 31.2134 881.76 31.4064 882.073 31.3953C882.559 31.3781 883.725 31.0697 885.663 31.0029C890.133 30.8518 898.518 30.8144 902.832 30.656C903.67 30.6254 903.382 30.32 906.707 30.2088C909.078 30.1292 908.672 30.3994 909.556 30.3718C910.924 30.3288 913.094 29.9258 916.201 29.7996C920.093 29.6614 949.32 28.6061 950.789 28.5968C951.818 28.6013 953 28.5452 953.51 28.657C953.085 28.8104 952.659 28.9637 952.232 29.1171C947.697 28.8816 949.554 29.3171 948.374 29.4098C946.714 29.5418 940.141 29.7938 938.632 29.9821C938.08 30.0507 939.367 30.2713 936.392 30.5572C933.193 30.8632 931.701 30.4309 930.453 31.1734C925.915 30.6231 921.526 31.6269 926.833 31.6018C929.775 31.6062 958.72 30.473 964.644 30.1788C969.41 29.9627 978.441 29.265 984.274 28.9805C987.792 28.8128 996.284 28.3416 995.955 28.724C999.015 28.5846 995.759 28.4192 996.397 28.3301C997.358 28.1939 1003.08 27.9643 1006.53 27.8054C1007.75 27.7492 1008.71 27.7017 1009.17 27.6697C1018.12 27.0502 1029.4 25.8653 1038.12 25.6647C1037.73 25.7919 1037.34 25.9191 1036.94 26.0463C1034.99 26.3761 1025.84 26.7771 1024.91 27.3059C1038.18 26.3805 1051.45 25.3575 1064.74 24.155C1064.46 23.8046 1080.93 22.2239 1081.74 22.2914C1081.47 22.5131 1081.2 22.7348 1080.93 22.9565C1071.5 23.1798 1072.49 24.0373 1066.15 24.1148C1063.63 24.3366 1064.42 24.5841 1063.17 24.757C1050.74 26.4462 1062.89 24.1379 1053.38 25.232C1056.29 25.4532 1048.51 26.2714 1044.96 26.6046C1044.21 26.6829 1033.69 27.3626 1032.44 27.4541C1025.47 28.0077 1013.64 29.0558 1006.63 29.2502C1006.58 29.2513 1006.54 29.2525 1006.5 29.2537C1001.09 29.5647 998.067 30.0785 993.095 30.4519C989.303 30.7347 990.41 30.4372 988.635 30.5385C984.921 30.7486 983.686 31.5228 981.289 30.6765C978.809 30.9393 976.185 31.2078 973.738 31.4643C973.729 31.3122 973.721 31.1601 973.713 31.008C972.142 31.0941 970.558 31.1802 968.958 31.2662C968.496 31.4431 968.032 31.62 967.567 31.7968C962.571 31.8545 964.63 31.3771 963.674 30.9959C962.59 31.0233 961.499 31.0507 960.402 31.078C959.577 31.4524 958.715 31.8285 957.918 32.2011C953.124 32.4207 948.22 32.6386 943.386 32.8464C943.063 32.7101 942.74 32.5738 942.417 32.4375C942.414 32.5896 942.411 32.7417 942.408 32.8938C934.223 33.3212 925.983 33.7324 917.784 34.1251C915.589 34.468 928.805 34.0615 929.757 34.0284C935.347 33.8574 950.028 32.8968 950.05 33.4336C953.525 32.859 963.905 32.4239 967.104 32.7353C962.273 32.964 957.314 33.1916 952.43 33.4082C952.599 33.5814 952.767 33.7546 952.935 33.9277C946.724 33.5063 945.947 33.5849 939.642 34.5807C939.625 34.3379 939.608 34.0952 939.59 33.8524C935.314 34.9058 927.447 33.8315 927.304 34.8828C924.987 34.9039 922.605 34.9266 920.283 34.9452C915.298 35.2892 923.114 35.7671 903.414 36.289C902.049 36.324 902.31 36.0469 900.265 36.1499C899.68 36.1792 896.394 36.7043 889.873 36.9238C888.879 36.9569 888.795 36.7292 887.758 36.7408C885.372 36.7659 880.558 37.4089 882.721 36.5806C873.122 36.7326 877.156 37.1875 874.197 37.5428C872.23 37.7778 872.611 37.323 870.898 37.4866C868.782 37.6882 870.318 38.0788 861.893 38.1794C862.842 38.1151 863.788 38.0508 864.731 37.9863C864.252 37.8831 863.772 37.7798 863.291 37.6765C858.472 38.1396 858.901 37.7003 856.626 38.4591C853.131 38.2798 850.121 38.3608 845.269 38.5803C835.994 38.9984 840.766 39.5726 830.083 38.935C828.375 39.1279 826.659 39.3205 824.934 39.513C822.075 39.3122 824.378 38.8771 820.102 38.9367C823.434 39.5513 814.544 39.5641 813.044 40.2477C812.881 40.1002 812.718 39.9527 812.555 39.8052C811.607 39.8338 810.658 39.8622 809.705 39.8906C809.706 40.0128 809.707 40.135 809.707 40.2572C808.438 40.2035 807.152 40.15 805.913 40.0949C804.979 40.2435 804.042 40.3921 803.102 40.5406C801.545 40.3303 799.981 40.1198 798.41 39.9092C797.428 39.9198 796.443 39.9303 795.456 39.9408C795.774 40.1138 796.091 40.2869 796.408 40.4599C795.138 40.4351 793.869 40.41 792.63 40.3838C794.084 40.6416 793.196 41.0175 789.3 41.1162C786.072 41.1976 789.71 40.4754 782.741 40.924C782.249 40.9553 781.402 41.4245 774.877 41.6649C767 41.9523 770.812 41.5307 769.406 41.556C769.127 41.5614 766.711 41.8471 764.491 41.9351C763.223 41.9853 761.992 41.8354 761.824 41.84C761.038 41.8679 760.815 42.129 759.723 42.1653C756.959 42.2558 753.167 42.2228 750.502 42.2991C749.277 42.3339 748.123 42.5126 747.573 42.5274C746.721 42.5493 745.632 42.3437 744.766 42.3648C741.56 42.4449 736.727 43.3222 735.243 42.2897C732.224 43.3382 725.736 42.2953 726.22 42.9418C718.067 42.8771 696.218 44.1176 696.812 42.9984C692.146 44.0321 692.604 43.3392 690.658 43.3901C688.494 43.4462 689.62 43.6083 687.896 43.6321C683.888 43.6873 679.921 43.6804 675.978 43.7462C676.602 43.5839 677.225 43.4216 677.847 43.2592C673.662 43.2847 675.113 43.6114 670.821 43.7536C662.896 44.0128 666.224 43.6745 665.047 43.298C665.327 43.6769 656.083 43.7698 655.117 43.7341C654.548 43.7123 657.032 43.1796 651.308 43.4297C651.624 43.5765 651.94 43.7233 652.256 43.8702C649.622 43.7048 642.584 44.0763 641.393 44.0428C640.844 44.0272 637.889 42.8472 635.195 43.8554C634.866 43.7083 634.537 43.5613 634.208 43.4143C632.968 43.5076 631.726 43.6007 630.481 43.6938C628.739 43.8259 626.992 43.9578 625.24 44.0894C624.76 43.8226 624.28 43.5558 623.799 43.2889C622.852 43.302 621.902 43.315 620.952 43.328C621.586 43.5622 622.219 43.7963 622.852 44.0304C616.979 44.0018 609.805 44.4778 608.604 43.6741C607.355 43.842 606.102 44.0098 604.848 44.1774C604.027 43.9154 603.205 43.6532 602.382 43.3911C596.543 43.5322 596.445 43.7151 592.496 44.0528C592.648 43.8383 592.8 43.6238 592.952 43.4094C590.039 43.7429 584.69 44.0833 580.428 44.1686C578.399 44.2088 574.982 43.9533 574.502 43.985C574.027 44.0184 569.326 45.2203 568.8 44.229C561.828 44.7443 558.785 44.3235 555.975 44.3627C554.149 44.3883 553.317 44.6358 551.247 44.6807C548.285 44.7454 545.283 44.6582 543.571 44.6908C542.6 44.71 542.42 44.945 541.75 44.9586C538.579 45.0236 540.437 44.7681 537.087 44.8143C536.778 44.8198 534.33 45.1267 531.556 45.1147C530.008 45.1083 525.98 44.8232 525.628 44.8269C524.07 44.8457 525.326 45.4754 519.985 44.7812C520.141 44.9016 520.297 45.0219 520.453 45.1423C513.846 45.5061 512.781 44.9715 511.441 44.9449C511.27 44.9432 509.653 45.1658 508.683 45.1446C507.038 45.1082 506.395 44.8261 506.033 44.8163C504.769 44.7823 500.502 44.9415 497.699 44.6849C498.31 45.4977 488.434 45.8609 486.294 44.9504C484.567 45.1451 482.836 45.3397 481.103 45.5341C480.317 45.3872 479.531 45.2402 478.745 45.0932C478.268 45.2483 477.791 45.4033 477.314 45.5584C474.78 45.2412 472.231 44.9237 469.695 44.6059C469.537 44.9418 469.379 45.2776 469.22 45.6135C468.515 45.58 467.81 45.5464 467.104 45.5129C466.551 45.2503 465.998 44.9878 465.445 44.7252C464.562 44.7816 463.679 44.838 462.795 44.8943C462.577 45.0882 462.359 45.2821 462.142 45.476C457.382 45.7273 459.825 43.8766 450.737 45.5451C449.332 45.4015 447.926 45.2579 446.518 45.1142C444.933 45.8621 441.948 45.4317 439.536 45.528C437.836 45.596 437.931 45.889 435.611 45.9082C433.288 45.9271 433.369 45.6459 433.188 45.6451C431.287 45.638 429.888 45.8928 428.504 45.8507C428.295 45.8445 427.773 45.5139 426.013 45.5018C424.251 45.4898 423.191 45.8497 420.561 45.796C419.213 45.7688 418.821 45.4899 417.624 45.471C411.892 45.3782 406.223 46.8267 401.934 45.159C400.981 45.3772 393.964 46.1562 390.996 46.1255C386.364 46.0762 388.147 45.7378 386.303 45.6848C386.037 45.6767 384.627 45.7944 380.726 45.7898C380.028 45.7889 380.191 45.9751 380.091 45.978C375.523 45.9926 366.731 45.8781 361.734 45.869C361.288 45.8678 358.955 46.3969 354.984 45.7099C349.139 46.2474 338.081 45.1709 330.356 45.9729C329.287 45.9924 327.987 45.8099 327.513 45.8176C323.427 45.8867 324.935 46.4485 315.676 45.6452C316.43 45.9316 314.247 46.1978 311.21 46.1835C306.629 46.1621 309.882 45.6161 306.198 45.6692C306.198 45.821 306.198 45.9728 306.199 46.1247C297.722 45.7368 295.988 46.3899 287.502 46.412C284.443 46.4195 279.914 46.0923 279.182 46.0928C278.9 46.0944 275.545 46.4671 275.224 46.4704C273.417 46.4849 272.397 46.3181 270.846 46.3201C265.719 46.3263 259.58 46.813 260.689 45.9466C259.275 46.1315 257.861 46.3165 256.445 46.5013C251.083 45.5871 247.118 46.8656 245.994 45.9707C245.04 46.1573 244.086 46.3439 243.132 46.5304C220.226 46.4712 197.308 46.4019 174.417 46.3255C173.503 46.6148 163.518 46.5195 163.008 46.4748C160.657 46.273 163.14 45.6423 158.342 45.7891C157.811 46.065 157.28 46.3409 156.749 46.6168C150.714 46.7102 153.617 46.4342 151.234 46.2487C150.238 46.2833 150.56 46.497 149.212 46.5133C141.921 46.6026 126.925 46.6194 118.953 46.6394C117.343 46.6436 117.586 46.4436 117.086 46.4432C115.711 46.4455 112.997 46.6984 110.236 46.6993C93.1797 46.7028 68.9926 46.5642 51.8229 46.3536C50.6563 46.339 50.5118 46.1006 49.7245 46.0887C48.6334 46.0733 46.196 46.2662 45.0482 46.2461C43.9671 46.2278 43.2741 46.0467 42.1177 46.0257C36.8277 45.927 29.7128 46.2331 24.0497 45.6993C23.5731 45.6542 17.6413 44.6943 17.5072 44.6314C16.7201 44.2577 21.9912 43.6706 13.333 43.1239C21.0712 42.6466 18.6543 41.8031 8.60153 41.391C13.644 41.2847 18.6843 41.1783 23.7275 41.072C23.7348 40.972 23.742 40.872 23.7493 40.772C19.1581 40.2766 14.6063 40.1118 7.62647 40.066C7.84412 39.9734 8.06177 39.8809 8.27941 39.7883C14.4442 39.3258 21.8785 39.2402 26.5747 38.6091C19.6873 38.1422 12.8058 37.6751 5.92011 37.208C6.264 37.135 6.60788 37.0621 6.95176 36.9891C10.2522 36.7995 17.4609 36.6881 20.2012 36.5113C30.6696 35.8372 11.04 36.007 14.2645 35.5958C25.3157 35.6105 36.3674 35.6252 47.4207 35.6394C47.8049 35.3369 5.2916 34.5012 5.72858 33.5868C9.20225 33.5255 12.6758 33.4641 16.1491 33.4027C14.6011 33.1705 13.053 32.9383 11.5049 32.7061C11.9314 32.6326 12.358 32.559 12.7846 32.4855C18.6443 32.3051 24.5054 32.1247 30.3663 31.9442C12.5463 32.1258 4.26874 31.9941 0 30.1655C0.483188 30.119 0.966376 30.0724 1.44956 30.0259C5.31006 31.1698 23.5288 30.7998 33.213 30.5715C31.2399 30.2365 22.7127 30.4955 20.9106 30.294C20.4 30.2362 22.1805 30.0036 20.9976 29.8846C17.9069 29.5751 4.73259 29.1768 6.64705 28.7977C7.8799 28.5541 29.0778 28.2197 33.2129 28.2451C23.52 27.8076 13.5342 27.681 3.81326 27.1489C9.9498 26.407 15.3815 25.4992 26.5832 25.4587C29.9963 25.0695 6.28761 24.5305 5.73728 24.3179C9.84067 24.09 13.9439 23.862 18.0467 23.634C14.5765 23.6948 11.1059 23.7557 7.63516 23.8165C7.625 23.7403 7.61484 23.6642 7.60469 23.588C16.5948 23.2344 24.821 22.5855 35.1104 22.6292C34.7786 22.2262 28.6221 22.2664 25.6341 22.2628ZM1010.74 29.9073C1010.92 30.1533 1008.73 30.3218 1006.7 30.4463C1006.11 30.4823 1005.54 30.5144 1005.05 30.5435C1005.37 30.5843 1005.69 30.6252 1006.01 30.666C1001.5 30.8904 993.04 31.2712 992.741 31.937C989.496 32.21 990.913 31.561 989.868 31.5583C989.489 31.5552 985.204 32.1345 981.85 31.9242C981.053 31.9709 980.253 32.0177 979.448 32.0644C979.305 32.2855 979.161 32.5065 979.017 32.7276C977.88 32.5328 976.728 32.3383 975.584 32.143C985.961 31.5293 996.328 30.8792 1006.68 30.1827C1008.05 30.0911 1009.39 29.9997 1010.73 29.9084C1010.73 29.908 1010.74 29.9076 1010.74 29.9073ZM894.093 36.1337C889.755 36.1897 883.318 36.2512 884.635 36.7825C887.334 36.6464 889.957 36.5118 892.699 36.3709C893.164 36.2918 893.629 36.2128 894.093 36.1337ZM470.186 44.0584C466.641 43.5081 463.382 44.0249 457.872 43.9551C457.88 44.0762 457.888 44.1973 457.896 44.3184C460.15 44.0139 466.094 44.1703 470.186 44.0584ZM1116.4 17.7139C1117.2 17.6461 1117.98 17.5784 1118.77 17.5106C1115.69 18.6119 1115.04 18.2415 1111.45 18.7987C1111.23 18.8322 1111.33 18.9696 1111.25 18.9809C1110.37 19.1107 1109.51 19.0458 1108.73 19.1526C1107.19 19.3619 1105.97 19.7081 1103.23 20.0502C1101.12 20.31 1101.07 20.0267 1100.32 20.1266C1099.68 20.2169 1093.52 21.7532 1089.46 21.859C1081.73 22.1439 1114.08 18.1411 1116.4 17.7139ZM1139.02 14.8032C1138.27 14.925 1137.53 15.0465 1136.78 15.1681C1138.96 14.3758 1134.43 15.1669 1131.09 15.6974C1131.13 15.2674 1138.22 14.33 1141.34 13.7018C1140.57 14.0689 1139.79 14.436 1139.02 14.8032ZM1043.32 25.0395C1046.22 24.7694 1045.83 25.3265 1045.7 25.4941C1044.72 25.571 1043.83 25.6409 1042.88 25.7144C1043.03 25.4894 1043.17 25.2644 1043.32 25.0395ZM1065.56 22.9844C1064.7 23.4244 1058.28 24.1527 1055.21 24.4369C1055.08 24.448 1055.9 24.183 1053.76 24.3806C1053.11 24.4439 1046.8 25.6713 1048.14 24.7503C1053.96 24.1907 1059.72 23.6088 1065.55 22.9851C1065.55 22.9849 1065.56 22.9846 1065.56 22.9844ZM1072.09 22.5854C1070.86 22.8161 1069.69 23.0393 1068.49 23.2642C1067.85 23.1556 1067.2 23.0471 1066.55 22.9386C1067.94 22.7677 1069.32 22.5971 1070.66 22.4265C1071.14 22.4796 1071.62 22.5324 1072.09 22.5854ZM161.317 42.1454C161.598 42.3245 161.88 42.5036 162.161 42.6828C163.252 42.792 168.547 42.0076 166.871 41.8576C165.02 41.9536 163.169 42.0495 161.317 42.1454ZM138.924 41.7817C137.821 41.6918 136.719 41.6019 135.615 41.5119C134.347 41.8167 133.078 42.1214 131.809 42.426C137.323 42.6288 143.181 42.8622 142.235 41.9658C143.496 41.9652 144.755 41.9645 146.015 41.9639C144.955 42.3353 145.097 42.4574 148.394 42.691C149.117 42.1745 152.534 42.4356 156.442 42.3198C153.6 42.2914 150.755 42.2628 147.911 42.2342C147.911 42.1432 147.911 42.0522 147.91 41.9613C154.25 41.9906 146.37 41.418 142.253 41.7817C141.928 41.6607 141.603 41.5398 141.278 41.4188C140.494 41.5398 139.709 41.6608 138.924 41.7817ZM596.704 39.8982C595.92 39.8162 595.141 39.7341 594.359 39.652C591.347 40.88 597.488 39.6762 601.949 40.5637C600.482 39.8656 607.216 39.811 607.594 39.7576C606.819 39.5263 606.044 39.295 605.267 39.0636C602.424 39.3424 599.57 39.6206 596.704 39.8982ZM574.46 39.3325C577.2 39.8976 563.797 40.0788 559.315 39.9919C558.23 39.9708 556.288 39.6639 555.503 39.7129C555.028 39.8382 554.552 39.9636 554.076 40.0889C553.525 39.6779 544.701 40.2322 541.284 40.4878C540.959 40.339 540.634 40.1902 540.309 40.0414C539.056 40.1133 537.802 40.1851 536.545 40.2568C536.702 40.1041 536.859 39.9514 537.015 39.7986C536.066 39.9893 535.117 40.1798 534.166 40.3703C530.425 40.6062 532.727 39.7609 529.913 40.0431C526.783 40.3564 531.92 40.8024 531.827 41.1228C534.368 41.018 540.116 40.781 542.668 40.7478C544.137 40.7289 542.468 41.318 548.851 40.5986C550.251 40.7385 551.649 40.8782 553.045 41.0179C555.603 40.7489 558.153 40.4794 560.694 40.2096C561.172 40.4168 561.644 40.6241 562.13 40.8312C562.41 40.8618 568.35 40.318 568.028 40.1619C570.443 40.5418 575.341 40.5616 580.523 40.5238C581.024 40.4029 581.525 40.2819 582.026 40.1609C576.982 40.4667 580.413 40.057 578.915 39.8531C578.057 39.7354 575.428 39.5144 574.46 39.3325ZM196.259 41.6525C187.83 42.1779 193.04 41.7462 183.948 41.7541C184.583 42.0276 185.218 42.301 185.853 42.5745C190.313 42.0701 197.701 42.3959 196.268 41.6525C196.265 41.6525 196.262 41.6525 196.259 41.6525ZM107.177 42.6156C111.998 42.4484 109.579 42.0231 115.687 41.8846C115.69 41.8846 115.693 41.8846 115.696 41.8846C112.538 41.855 109.379 41.8253 106.218 41.7955C106.538 42.0688 106.857 42.3422 107.177 42.6156ZM388.803 41.7818C393.41 41.8816 392.496 41.6723 396.705 42.0798C402.957 41.5358 397.664 41.6321 397.661 41.1632C396.232 41.307 394.801 41.4507 393.369 41.5944C389.919 41.1705 393.187 40.9359 393.187 40.8937C393.184 40.8938 393.181 40.8938 393.178 40.8938C393.178 40.753 393.288 40.7229 391.967 40.6435C390.913 41.023 389.858 41.4024 388.803 41.7818ZM408.57 41.1154C406.991 41.4342 406.284 41.8374 410.437 42.0176C410.439 42.0176 410.442 42.0175 410.445 42.0175C410.769 41.3201 414.769 41.8628 416.598 41.8071C417.076 41.7291 417.554 41.6511 418.032 41.5732C414.871 41.421 411.707 41.2685 408.57 41.1154ZM478.236 40.0805C478.258 40.8492 474.761 40.946 479.688 41.621C480.643 41.6007 481.597 41.5804 482.55 41.56C483.174 41.387 483.799 41.2139 484.423 41.0408C496.543 42.3451 500.112 39.9525 479.683 40.9815C479.681 40.9821 479.678 40.9826 479.675 40.9832C479.195 40.6823 478.715 40.3814 478.236 40.0805ZM456.899 40.2826C456.747 40.6871 456.595 41.0917 456.443 41.4962C453.754 40.5389 450.293 41.4886 445.064 40.8315C444.591 40.9569 444.118 41.0823 443.644 41.2077C441.686 40.9502 422.416 40.9743 426.597 41.5728C428.419 41.8346 432.357 41.4456 432.711 41.4519C433.873 41.4762 435.39 41.8148 437.348 41.7839C438.48 41.7656 440.86 41.3449 443.162 41.3327C448.286 41.3058 457.734 42.3442 464.485 41.2655C464.972 41.3841 465.459 41.5027 465.946 41.6212C470.954 41.5149 469.272 41.1403 473.97 41.5691C477.168 39.6323 455.191 41.784 459.758 40.2001C459.755 40.2001 459.752 40.2001 459.749 40.2001C458.8 40.2277 457.85 40.2552 456.899 40.2826ZM318.527 41.4404C318.224 41.097 312.38 41.6434 313.751 40.815C311.851 41.1071 309.957 41.3992 308.057 41.6911C308.072 41.7678 308.087 41.8444 308.101 41.9211C309.99 41.8561 311.873 41.791 313.762 41.7258C313.77 41.8475 313.777 41.9691 313.785 42.0908C316.617 41.6437 328.377 41.8029 328.016 42.2346C328.643 42.0508 329.27 41.8671 329.896 41.6833C335.494 42.1626 340.38 41.621 346.495 42.0849C346.968 41.9327 347.442 41.7804 347.915 41.6281C348.224 41.7488 348.533 41.8694 348.842 41.9901C351.072 41.9981 353.283 42.0061 355.531 42.0138C362.817 41.499 348.664 40.9131 346.965 40.9901C346.738 41.0009 346.774 41.3157 345.353 41.3697C342.831 41.4651 328.667 41.1942 324.308 41.4135C324.27 41.2047 324.231 40.9958 324.193 40.787C322.306 41.0049 320.418 41.2227 318.527 41.4404ZM505.255 40.7059C505.575 40.9161 505.894 41.1263 506.214 41.3364C511.729 41.0808 515.218 41.2376 513.794 40.546C513.791 40.546 513.788 40.546 513.785 40.5461C510.95 40.5998 508.061 40.6534 505.255 40.7059ZM914.825 31.8802C914.682 31.4633 911.948 31.4247 908.621 31.8698C908.789 31.9854 908.957 32.1011 909.125 32.2168C910.83 31.7833 913.17 32.3123 918.6 31.9892C918.591 31.7767 918.581 31.5643 918.572 31.3519C917.33 31.5281 916.081 31.7042 914.825 31.8802ZM500.515 40.6504C498.838 40.4125 494.124 41.2082 497.229 41.2226C499.602 41.2332 501.415 40.7781 500.515 40.6504ZM88.2298 42.209C89.4755 42.2532 90.7211 42.2974 91.9664 42.3416C92.6152 42.1606 93.2639 41.9795 93.9125 41.7985C93.9096 41.7985 93.9067 41.7985 93.9038 41.7985C92.0129 41.9354 90.1216 42.0722 88.2298 42.209ZM373 41.8796C377.234 41.8371 381.469 41.794 385.687 41.7503C385.728 41.6321 385.77 41.514 385.811 41.3959C381.586 41.8436 379.878 41.3862 378.891 41.3617C378.895 41.3617 378.899 41.3617 378.904 41.3617C375.729 41.2808 372.698 41.2236 369.717 41.0937C370.812 41.3557 371.906 41.6177 373 41.8796ZM358.535 41.1878C359.25 42.0187 360.188 42.1129 366.668 41.5032C366.411 41.4015 366.154 41.2999 365.897 41.1982C362.538 41.2717 360.574 41.4709 361.164 41.0342C360.288 41.0854 359.412 41.1366 358.535 41.1878ZM424.673 41.1733C423.897 40.9121 417.714 41.2094 418.049 41.3414C418.186 41.394 426.194 41.6859 424.673 41.1733ZM961.728 29.4564C960.306 29.4698 958.817 29.486 957.429 29.4964C959.289 29.3103 961.241 29.1184 963.117 28.9292C962.655 29.105 962.192 29.2807 961.728 29.4564ZM977.283 27.4302C978.304 27.4792 975.054 28.413 981.13 28.2648C976.7 28.5314 972.335 28.7875 967.867 29.0427C969.959 28.8094 972.026 28.5759 974.068 28.3424C973.699 28.147 973.329 27.9517 972.958 27.7564C974.391 27.6489 975.812 27.5413 977.283 27.4302ZM982.052 27.7118C979.634 27.2817 992.135 26.5182 993.332 26.5112C993.596 26.5121 994.863 26.8687 995.323 26.9339C993.44 27.0478 991.487 27.1645 989.642 27.2733C990.278 27.3722 990.909 27.4711 991.541 27.5699C989.367 27.7453 987.163 27.9205 984.927 28.0958C985.876 27.9045 986.82 27.7132 987.757 27.5219C985.874 27.5855 983.897 27.6531 982.052 27.7118ZM931.816 30.4319C933.418 30.3717 935.008 30.3114 936.586 30.2509C936.261 30.0535 935.935 29.856 935.609 29.6585C934.662 29.7032 933.711 29.7478 932.755 29.7924C932.443 30.0056 932.129 30.2187 931.816 30.4319ZM964.077 28.5593C961.844 29.7028 955.384 27.7967 962.815 28.2396C963.559 28.2849 964.288 28.4491 964.077 28.5593ZM998.023 26.3506C1002.92 25.3022 1001.87 27.0189 997.222 26.8191C996.988 26.8075 997.662 26.4279 998.023 26.3506ZM1034.94 23.8563C1035.34 23.8315 1036.08 24.3146 1039.83 23.5209C1040.47 23.533 1041.11 23.545 1041.74 23.5571C1040.22 23.9328 1027.74 24.9944 1029.42 24.3386C1031.36 24.1914 1032.89 23.9907 1034.94 23.8563ZM1022.62 22.756C1020.71 22.9029 1018.85 23.0439 1016.97 23.1844C1017.6 23.3096 1018.23 23.4349 1018.86 23.5601C1017.94 23.6674 1017.02 23.7748 1016.09 23.8823C1014.48 23.7009 1012.85 23.519 1011.27 23.3324C1015.36 23.0208 1019.42 22.7033 1023.57 22.3694C1023.26 22.4982 1022.94 22.6271 1022.62 22.756ZM972.444 25.4118C976.017 25.4265 980.511 24.9542 986.418 24.6479C986.421 24.6483 986.424 24.6486 986.427 24.649C986.722 24.6343 987.259 24.8332 988.204 24.7872C988.936 24.7603 1004.94 23.5347 1003.7 23.9952C997.507 24.731 995.25 24.3316 993.796 25.2864C993.483 25.1224 993.169 24.9583 992.855 24.7942C986.939 24.8289 985.225 25.558 981.945 25.9775C981.95 25.8395 981.955 25.7014 981.96 25.5634C979.761 25.6746 977.527 25.7861 975.273 25.8968C975.59 25.9699 975.918 26.0423 976.239 26.1151C975.432 26.1599 974.668 26.2021 973.888 26.2449C971.971 25.9421 969.534 25.9791 972.444 25.4118ZM1031.19 22.3784C1032.88 21.2225 1049.84 20.6586 1057.64 19.7447C1053.61 20.7246 1047.27 20.8087 1042.83 21.1458C1034.19 21.7971 1040.19 21.7223 1038.74 22.0025C1038.08 22.1374 1033.06 21.8408 1031.19 22.3784ZM959.175 26.3C963.536 26.1581 965.78 25.7985 969.593 25.9766C969.285 26.0695 968.976 26.1624 968.667 26.2553C967.361 26.2588 957.042 26.5778 959.175 26.3ZM1069.03 18.9944C1060.71 19.3883 1064.92 19.9466 1060.51 19.6304C1063.38 19.3325 1066.17 19.0343 1069.01 18.7226C1069.02 18.8132 1069.02 18.9038 1069.03 18.9944ZM490.993 36.7966C487.477 36.7982 483.626 36.6349 481.536 37.0428C483.905 37.0873 486.268 37.1315 488.626 37.1754C489.412 37.0492 490.205 36.9229 490.993 36.7966ZM590.474 32.0205C589.679 31.9356 586.533 32.2507 586.199 32.2545C585.581 32.2616 585.749 32.1225 585.739 32.0868C581.692 32.1581 585.433 32.5407 582.435 32.6674C581.904 32.6889 574.911 32.5568 572.063 32.6045C567.68 32.6784 563.27 32.6966 561.617 32.7208C558.868 32.7611 553.751 33.1318 549.185 33.1923C547.303 33.2167 546.643 32.9675 544.745 32.9919C532.705 33.1521 508.75 33.7029 498.073 33.6182C495.418 33.5978 492.876 33.2819 491.467 33.3194C490.358 33.4497 489.235 33.5799 488.138 33.71C484.743 32.6342 483.614 33.6204 479.947 33.7482C477.617 33.829 476.521 33.5104 476.208 33.5133C474.127 33.5337 473.1 33.6956 471.462 33.7321C469.611 33.7726 467.013 33.6423 466.356 33.673C465.953 33.6933 467.245 34.1188 460.147 34.1548C452.885 34.1911 445.772 34.1868 438.401 34.2071C440.867 35.5013 442.977 34.5944 445.975 34.5295C446.779 34.5121 446.27 34.7227 446.97 34.7095C448.943 34.6734 452.731 34.4471 454.384 34.4866C456.161 34.5292 455.558 35.0142 457.807 34.8229C457.921 34.8131 457.56 34.6165 458.089 34.58C463.408 34.2185 465.122 34.5536 471.839 34.5199C476.32 34.5013 503.329 34.1087 504.238 34.2281C509.094 34.8891 480.611 35.1056 477.291 35.0691C476.124 35.0577 477.346 34.83 476.282 34.795C475.84 34.7812 471.75 35.2271 467.775 35.2873C462.974 35.3607 453.2 35.135 448.608 35.1713C409.005 35.4881 369.921 35.3917 330.325 35.5012C329.483 35.5036 328.376 35.7575 325.628 35.7653C274.297 35.905 221.095 35.7806 169.109 35.9354C157.796 35.9691 146.536 36.2112 135.108 36.0295C133.688 36.2132 132.269 36.3968 130.849 36.5804C134.482 36.4334 141.132 36.8442 141.737 36.85C141.955 36.8517 143.33 36.6447 145.547 36.6545C148.661 36.6675 150.036 36.8456 150.292 36.8455C151.086 36.8456 150.565 36.6556 151.324 36.6561C156.982 36.6611 161.355 36.6043 166.537 36.599C172.391 36.5931 175.375 36.9453 179.64 36.5527C180.123 36.7041 180.607 36.8556 181.09 37.007C184.265 36.3482 203.278 36.4035 210.945 36.4292C213.377 36.4375 212.95 36.7046 213.767 36.7037C214.288 36.7027 214.085 36.354 220.437 36.4149C223.633 36.4458 224.471 36.699 226.072 36.6887C226.942 36.6827 226.8 36.4307 228.05 36.429C235.273 36.4195 241.211 36.4928 248.279 36.5284C250.267 36.5381 250.289 36.7486 250.734 36.7451C252.364 36.7331 255.237 36.372 259.409 36.3657C266.275 36.3561 279.961 36.3309 285.576 36.4918C286.401 36.5157 287.084 36.7668 287.69 36.7618C288.608 36.7534 288.967 36.4891 289.128 36.4874C292.194 36.4761 290.35 36.7251 292.403 36.6611C293.507 36.6265 294.673 36.3234 297.255 36.2835C300.665 36.2307 299.994 36.589 301.418 36.5499C301.568 36.544 301.613 36.2958 303.011 36.2843C308.311 36.2423 315.987 36.1654 321.019 36.1525C322.461 36.1486 323.534 36.3126 325.542 36.3098C329.565 36.3055 352.62 36.1272 354.485 36.2157C354.685 36.2251 352.632 36.598 355.905 36.5759C356.855 36.4203 357.805 36.2647 358.753 36.109C360.342 36.3474 361.928 36.5856 363.514 36.8238C363.458 35.9817 372.762 35.8174 372.668 36.679C373.68 36.7101 374.713 36.7411 375.735 36.7721C377.863 36.1686 379.283 36.3829 383.388 36.0167C384.028 36.1966 384.669 36.3765 385.309 36.5564C385.469 36.4341 385.63 36.3117 385.79 36.1894C387.982 36.8398 391.561 36.1628 391.995 36.1572C393.661 36.1355 394.941 36.2976 395.728 36.2888C398.679 36.2587 405.046 35.9993 408.469 36.0903C408.629 36.095 408.473 36.3776 409.447 36.4078C411.207 36.4624 411.362 36.0491 413.724 36.5224C414.2 36.3985 414.675 36.2745 415.151 36.1505C415.656 36.211 416.162 36.2715 416.667 36.332C419.647 36.2852 422.62 36.2381 425.587 36.1906C422.889 36.6815 426 36.9323 428.928 36.5414C429.919 36.4089 429.038 36.123 429.368 36.0773C429.79 36.0162 443.191 36.0912 444.055 36.2734C444.685 36.1783 445.315 36.0832 445.944 35.9881C446.263 36.1693 446.583 36.3504 446.902 36.5316C447.249 36.4656 447.596 36.3996 447.943 36.3336C451.376 36.6365 460.449 35.842 462.064 35.89C462.935 35.9157 462.16 36.7008 466.331 36.5947C466.474 36.3795 466.617 36.1644 466.761 35.9492C467.715 35.9125 468.668 35.8756 469.621 35.8388C471.418 35.8462 474.053 36.2001 474.137 36.4534C474.699 36.2973 475.261 36.1412 475.823 35.9851C477.342 36.4716 485.378 36.2404 488.587 35.903C489.534 36.046 490.49 36.1888 491.44 36.3316C492.716 36.1403 493.989 35.949 495.261 35.7576C498.21 35.681 495.097 36.0066 495.725 36.0272C497.06 36.0697 503.811 35.5073 503.368 36.1471C504.288 36.1416 505.207 36.136 506.125 36.1304C506.597 35.9448 507.064 35.7591 507.538 35.5734C509.136 36.1882 511.896 35.9452 517.518 36.1276C517.988 35.9793 518.458 35.831 518.927 35.6827C520.664 35.8735 522.399 36.0641 524.13 36.2545C524.483 36.0124 524.836 35.7703 525.189 35.5281C525.936 35.4873 526.706 35.4463 527.463 35.4053C529.012 35.9275 531.774 35.3244 533.181 35.5327C535.233 35.8366 533.656 36.2352 529.841 36.343C530.142 36.7311 541.462 36.4498 544.05 36.3961C543.875 36.3216 543.702 36.2471 543.53 36.1725C540.876 36.2578 538.214 36.3426 535.545 36.4271C533.3 35.4665 540.551 35.664 543.853 35.5061C544.159 35.4911 545.895 35.1033 549.26 35.1054C550.566 35.1067 555.638 35.5999 556.6 35.6203C564.386 35.7894 558.63 35.0723 566.313 35.673C564.708 35.1686 569.127 35.5558 573.684 35.4053C574.463 35.3799 581.019 34.8847 581.489 34.8681C584.28 34.7686 581.249 35.2639 585.281 35.0978C585.764 34.9711 586.247 34.8444 586.729 34.7177C587.666 34.7068 588.601 34.6959 589.536 34.6849C595.219 35.6975 596.495 34.8863 598.54 34.7594C599.36 34.7081 598.308 35.0027 600.433 34.917C601.232 34.8849 602.117 34.6397 604.261 34.5962C610.968 34.46 613.206 35.4337 619.402 34.3063C620.353 34.4447 621.302 34.583 622.25 34.7213C622.886 34.5311 623.521 34.3409 624.155 34.1507C629.03 34.6093 627.263 34.0945 629.017 34.0762C629.425 34.0718 629.87 34.0676 630.343 34.0638C635.338 34.0239 643.304 34.0247 644.06 34.4086C648.005 33.3513 652.927 34.3985 654.491 34.3344C655.432 34.1982 656.37 34.0619 657.307 33.9255C658.413 34.0293 659.517 34.1329 660.618 34.2364C660.055 33.2665 665.806 34.134 666.371 34.1388C667.023 34.1431 675.833 33.7015 679.079 33.6479C682.396 33.5944 688.114 33.7542 688.612 33.7452C689.199 33.7344 694.709 33.365 699.125 33.2814C702.938 33.216 725.577 33.1226 724.099 32.7135C722.632 32.6242 720.539 32.5642 718.721 32.5457C712.996 32.5043 679.874 32.9215 671.41 32.9861C657.883 33.1107 644.115 33.3208 630.335 33.4723C626.751 33.5115 623.163 33.5468 619.584 33.5754C618.577 33.5835 618.42 33.3318 617.554 33.3377C616.242 33.3481 612.892 33.6465 611.626 33.6575C606.841 33.6982 600.964 33.7301 598.366 33.7554C592.591 33.8131 588.68 33.706 584.296 33.7316C582.915 33.7403 576.02 34.1328 571.301 34.0505C570.443 33.9883 569.584 33.9261 568.725 33.8638C571.176 33.7546 577.52 33.4698 580.5 33.4113C584.945 33.3256 587.248 33.5044 588.878 33.4818C590.255 33.4632 597.164 33.1463 600.388 33.1004C601.379 33.0863 601.585 33.35 602.431 33.3385C607.043 33.2746 612.97 33.1906 617.005 32.8754C615.385 32.9828 625.533 33.0081 626.049 32.9991C626.955 32.9864 627.935 32.7236 629.779 32.6973C629.972 32.6946 630.153 32.6935 630.324 32.6939C633.34 32.7 633.174 33.1417 637.401 32.5867C638.51 32.7222 639.618 32.8575 640.723 32.9927C640.752 32.2997 654.786 33.0271 658.718 32.1171C658.847 32.0225 640.641 32.038 639.174 32.043C636.534 32.0579 633.508 32.0996 630.316 32.1507C622.813 32.2712 614.226 32.4459 608.148 32.4377C605.539 32.4352 597.245 32.116 596.61 32.1311C595.609 32.1551 596.515 32.3855 596.084 32.3993C587.252 32.6848 591.649 32.1467 590.474 32.0205ZM981.857 24.4296C979.203 24.5519 976.413 24.6791 973.761 24.7961C973.946 24.6334 974.132 24.4706 974.316 24.3079C975.517 24.3011 976.812 24.2886 978.048 24.2788C978.998 24.1346 979.942 23.9903 980.88 23.8461C981.207 24.0406 981.532 24.2351 981.857 24.4296ZM988.475 23.4091C990.795 23.1963 990.909 23.5109 991.455 23.4944C993.094 23.4449 994.487 23.2313 996.044 23.1417C994.306 24.0119 990.392 23.8943 988.475 23.4091ZM940.132 25.6955C940.669 25.7063 944.283 26.3552 948.201 25.3955C951.197 25.4901 954.262 25.5786 957.224 25.6696C952.156 25.5597 945.113 26.293 942.612 26.3988C941.658 26.4394 941.463 26.1964 940.697 26.2291C936.374 26.4174 932.141 27.1862 931.645 26.3731C935.83 26.4216 939.46 25.6829 940.132 25.6955ZM966.459 24.6605C967.15 24.7984 967.885 24.9339 968.594 25.0705C966.017 25.2091 963.594 25.3373 961.042 25.4704C961.718 25.2583 962.392 25.0461 963.063 24.8339C964.202 24.7761 965.334 24.7183 966.459 24.6605ZM772.539 31.4237C774.097 31.3853 775.65 31.3466 777.197 31.3078C777.109 31.1829 775.337 31.2302 774.68 31.1614C774.683 31.1613 774.686 31.1613 774.689 31.1612C773.956 31.0832 774.265 30.9113 772.934 30.8737C772.803 31.057 772.671 31.2404 772.539 31.4237ZM128.962 36.0353C126.358 36.0277 102.275 36.0344 104.329 36.4974C105.357 36.7289 113.603 36.5245 116.029 36.5273C119.305 36.531 128.129 37.0293 128.962 36.0353ZM86.3207 35.9571C85.9055 36.4197 100.956 36.49 102.423 36.4091C102.111 36.3432 101.63 36.1966 101.214 36.1634C99.1867 36.0046 89.5682 36.083 86.3207 35.9571ZM685.416 32.0109C686.635 32.2223 687.851 32.4337 689.065 32.6448C688.741 32.3467 688.417 32.0485 688.093 31.7503C687.202 31.8373 686.31 31.9241 685.416 32.0109ZM567.75 34.0154C547.548 34.2142 527.333 34.3822 507.1 34.5264C508.881 34.3859 510.67 34.2453 512.45 34.1045C529.794 34.0098 548.476 33.9666 565.243 33.5958C566.079 33.7357 566.915 33.8755 567.75 34.0154ZM934.41 24.5964C929.154 24.8385 924.956 25.2543 919.265 25.1517C924.634 24.5679 927.281 24.9807 932.487 24.2306C932.49 24.2304 932.493 24.2303 932.496 24.2302C933.136 24.3523 933.774 24.4743 934.41 24.5964ZM818.855 28.9287C820.402 28.6683 822.012 28.4055 823.579 28.1435C821.685 28.203 819.742 28.2633 817.887 28.3203C818.21 28.5231 818.532 28.7259 818.855 28.9287ZM391.457 34.0712C386.084 34.5587 372.157 33.7732 367.798 34.347C367.513 34.3847 370.127 34.6108 365.905 35.0823C369.097 34.9773 371.344 34.8735 371.58 34.5139C372.527 34.632 373.47 34.7501 374.426 34.8681C376.006 34.77 377.584 34.6718 379.16 34.5736C378.991 34.9315 379.116 34.912 381.536 34.6578C382.64 34.7439 383.743 34.8299 384.845 34.9158C385.312 34.7627 385.778 34.6095 386.244 34.4563C387.198 34.664 388.152 34.8716 389.105 35.0792C392.815 34.8341 390.553 34.4336 391.457 34.0712ZM410.416 34.0737C409.572 34.0009 384.395 34.3673 395.845 35.0299C398.82 34.9942 401.789 34.9583 404.752 34.922C402.294 33.7536 410.369 34.7715 411.027 34.7929C414.191 34.8932 418.269 34.5927 420.57 34.5957C422.554 34.5986 423.731 34.8043 425.123 34.7917C429.85 34.7495 437.37 34.701 438.401 34.2071C434.703 34.2173 430.937 34.2321 427.119 34.2641C423.07 34.2978 419.497 33.8555 411.854 34.5239C409.976 34.4649 410.643 34.0928 410.416 34.0737ZM828.318 28.0428C828.122 28.5408 837.726 28.1119 837.779 27.915C837.797 27.801 834.666 27.9065 834.213 27.878C834.21 27.8781 834.207 27.8782 834.204 27.8783C834.016 27.8656 834.961 27.6471 833.481 27.6431C831.716 27.7783 830.045 27.9099 828.318 28.0428ZM166.409 34.9186C165.123 34.6452 135.525 34.7606 134.655 34.892C134.418 34.9286 134.748 35.0492 134.655 35.1189C141.56 34.7277 151.367 35.1819 157.926 35.2081C159.753 35.2152 159.207 35.0206 159.31 35.0168C159.315 35.0168 159.319 35.0168 159.323 35.0168C160.36 35.0157 165.037 35.4889 166.409 34.9186ZM358.321 34.6046C359.582 34.6769 360.841 34.7492 362.1 34.8215C362.419 34.6685 362.738 34.5156 363.057 34.3626C363.054 34.3626 363.051 34.3626 363.048 34.3626C361.474 34.4434 359.898 34.524 358.321 34.6046ZM314.725 34.2365C315.032 34.3425 315.34 34.4486 315.647 34.5546C318.823 34.5611 321.993 34.5673 325.159 34.5733C324.84 34.6345 324.521 34.6957 324.202 34.7569C328.99 34.9047 330.965 34.5233 333.508 34.5699C333.506 34.5699 333.503 34.5699 333.5 34.5699C333.775 34.5754 334.109 34.797 335.134 34.8015C337.485 34.812 344.201 34.874 345.009 34.6473C346.736 34.1641 333.188 34.433 330.691 34.4179C329.556 34.4111 328.189 34.2202 327.498 34.2176C326.74 34.2155 325.709 34.4815 323.862 34.4785C323.323 34.4773 317.324 34.1841 314.725 34.2365ZM258.827 34.6751C259.805 34.9143 261.845 34.6781 262.594 34.7162C262.773 34.7251 261.381 34.9292 263.069 34.9867C263.546 34.8483 264.023 34.7099 264.5 34.5715C262.61 34.6061 260.719 34.6407 258.827 34.6751ZM844.375 27.2834C844.095 27.2415 838.999 27.4311 838.744 27.4719C835.697 28.0135 846.276 27.6125 844.375 27.2834ZM974.074 21.1617C971.7 20.671 999.745 19.6858 1002.47 19.4544C1002.37 19.8646 995.635 19.8734 999.171 20.2088C995.864 20.1114 986.654 20.817 984.453 20.8527C983.111 20.8766 982.773 20.5483 982.575 20.5486C981.841 20.5529 974.891 21.3438 974.074 21.1617ZM1025.62 18.1985C1023.02 18.3051 1020.23 18.4202 1017.64 18.518C1020.7 18.2664 1023.94 17.9976 1027.03 17.7331C1026.55 17.8892 1026.08 18.0442 1025.62 18.1985ZM1028.97 17.7779C1028.87 17.3989 1037.89 17.0362 1040.27 16.7579C1037.63 17.6253 1033.1 17.3381 1028.97 17.7779ZM878.441 25.0526C874.306 24.9527 872.561 26.2056 877.576 25.4985C877.728 25.4757 878.614 25.0597 878.441 25.0526ZM390.166 32.4072C389.461 32.4031 380.618 32.0544 380.102 32.2467C378.483 32.8609 384.295 32.5941 386.237 32.8155C389.371 33.1743 384.771 33.5001 392.408 33.2435C392.096 33.3665 391.785 33.4895 391.473 33.6125C395.949 33.6337 394.49 32.7971 395.293 32.6853C395.541 32.6513 398.352 32.7099 398.858 32.6538C405.193 31.947 390.796 32.4108 390.166 32.4072ZM775.238 28.2561C766.937 28.1149 770.434 28.5496 761.987 28.7307C761.687 29.0074 774.173 28.5206 775.238 28.2561ZM471.051 32.4589C462.499 32.62 455.382 32.3137 447.393 32.8297C447.888 33.5529 473.295 32.6332 471.051 32.4589ZM67.3737 32.6703C100.813 33.9554 139.348 33.5206 174.957 33.4731C178.838 33.4683 179.209 33.7548 180.613 33.7225C181.532 33.7016 181.371 33.4707 182.592 33.4686C226.75 33.3942 269.06 33.0304 311.346 33.0614C314 33.0642 326.999 33.5252 329.749 32.7687C331.839 32.1952 322.541 32.6642 320.983 32.6631C319.816 32.6626 319.765 32.396 318.987 32.3971C318.16 32.3984 318.844 32.5788 317.884 32.5842C313.807 32.6078 309.399 32.5478 305.73 32.5723C269.739 32.8094 234.722 32.8201 198.925 32.8301C194.589 32.8316 195.48 32.617 195.262 32.6163C195.259 32.6168 195.256 32.6174 195.253 32.6179C172.021 32.6201 145.484 33.1154 120.872 32.9409C103.535 32.8 86.2091 32.6565 68.8804 32.5115C68.3782 32.5644 67.876 32.6174 67.3737 32.6703ZM408.52 33.0797C406.357 32.2837 405.889 33.0991 398.118 32.8047C397.486 32.945 396.853 33.0853 396.221 33.2256C400.336 33.1775 404.441 33.1289 408.533 33.0796C408.528 33.0797 408.524 33.0797 408.52 33.0797ZM357.281 32.9928C355.934 31.9095 338.639 32.7356 330.808 32.5498C329.367 33.1008 340.744 32.8215 343.42 32.8702C344.768 32.8945 351.883 33.4339 357.356 33.1036C357.331 33.0666 357.306 33.0297 357.281 32.9928ZM944.679 21.0854C943.421 21.1787 942.156 21.272 940.882 21.3652C944.092 21.3311 947.182 21.3001 950.365 21.2617C945.368 21.4339 940.248 21.6045 935.276 21.7613C936.202 21.4914 937.124 21.2216 938.042 20.9517C940.193 21.0005 942.487 21.0412 944.679 21.0854ZM928.347 21.9759C937.152 21.4828 927.973 22.5149 925.784 22.3441C924.461 22.2429 927.459 22.0261 928.347 21.9759ZM905.419 22.5965C909.464 22.0307 917.834 21.637 914.899 22.558C910.381 22.3834 907.634 22.8108 901.117 22.8688C902.062 22.6776 903.003 22.4863 903.941 22.2951C903.945 22.2949 903.95 22.2947 903.954 22.2945C904.443 22.3952 904.932 22.4959 905.419 22.5965ZM932.351 21.3107C938.152 21.4974 921.44 22.1139 926.675 21.5728C926.921 21.5484 932.097 21.3057 932.351 21.3107ZM104.327 31.8447C103.63 32.1037 108.076 32.0977 109.557 32.1146C115.976 32.1897 124.18 32.0742 130.855 32.1071C130.353 32.0221 129.85 31.9372 129.348 31.8522C121.009 31.8503 112.672 31.8478 104.327 31.8447ZM151.709 32.0984C156.295 32.0958 160.875 32.0929 165.451 32.0898C165.877 32.0895 167.877 31.8661 166.39 31.8131C161.502 31.9085 156.608 32.0036 151.709 32.0984ZM437.431 31.3814C433.912 31.2559 444.035 30.4571 443.579 31.2551C441.533 31.2974 439.483 31.3395 437.431 31.3814ZM470.087 30.8687C467.896 30.9586 465.702 31.0483 463.504 31.1378C463.501 31.0463 463.497 30.9548 463.494 30.8633C465.695 30.8653 467.892 30.8672 470.087 30.8687ZM86.32 31.6663C88.6551 31.979 94.223 31.9297 97.6928 31.9353C95.303 31.6668 89.6037 31.8003 86.32 31.6663ZM384.813 31.3106C385.108 31.5233 371.106 31.5243 375.953 31.1299C378.912 31.1904 381.866 31.2506 384.813 31.3106ZM356.428 31.101C359.432 31.044 361.754 31.109 361.139 31.4464C359.549 31.4377 357.957 31.429 356.364 31.4201C356.385 31.3137 356.406 31.2074 356.428 31.101ZM889.714 22.6021C884.758 22.8298 879.568 23.0611 874.616 23.278C874.799 23.1795 874.982 23.081 875.164 22.9826C879.943 22.7724 884.942 22.5488 889.72 22.3287C889.718 22.4198 889.716 22.511 889.714 22.6021ZM83.4641 30.8448C79.9988 30.9051 76.5321 30.9654 73.0641 31.0256C76.535 31.0865 80.0047 31.1474 83.4729 31.2082C83.4729 31.0865 83.4729 30.9648 83.4728 30.8432C83.4699 30.8437 83.4671 30.8442 83.4641 30.8448ZM958.729 18.2796C943.352 18.6373 962.974 17.1892 967.02 17.5922C967.024 17.5915 967.029 17.5907 967.033 17.59C967.396 17.626 966.648 17.9345 967.254 18.0104C965.661 17.9744 964.137 17.9339 962.559 17.8955C961.14 18.1211 959.709 18.3466 958.267 18.572C957.779 18.5379 957.325 18.5019 956.854 18.4668C957.47 18.405 958.091 18.3428 958.729 18.2796ZM1020.8 14.3604C1034.72 13.4372 1020.49 15.1182 1013.59 15.0358C1013.67 14.909 1019.48 14.4481 1020.8 14.3604ZM984.268 16.7927C982.033 16.9822 979.916 17.1632 977.696 17.3483C977.409 17.2875 977.122 17.2267 976.834 17.1659C978.533 16.995 980.213 16.824 981.876 16.653C982.658 16.7007 983.459 16.7471 984.268 16.7927ZM911.881 19.217C908.333 19.2848 903.825 20.3347 915.232 19.616C915.223 19.5248 915.213 19.4337 915.203 19.3425C914.751 19.3769 913.42 19.5209 913.346 19.5172C913.135 19.5034 913.371 19.1874 911.881 19.217ZM1046.4 10.0511C1046.81 9.98282 1046.89 9.01136 1051.12 9.66531C1052.37 9.50093 1053.59 9.33763 1054.81 9.1726C1055.16 9.35668 1055.5 9.54076 1055.85 9.72483C1051.04 9.96858 1050.55 10.4349 1050.19 10.4742C1048.57 10.6477 1049.75 10.3287 1048.73 10.4092C1046.09 10.619 1040.02 11.24 1042.72 10.3964C1043.65 10.0972 1046.02 10.1169 1046.4 10.0511ZM1036.93 10.2355C1037.52 10.2724 1035.67 10.694 1036.12 10.7408C1036.48 10.7857 1042.35 10.6248 1040.8 11.2215C1039.85 11.2749 1038.87 11.3298 1037.91 11.3819C1037.59 11.2757 1037.26 11.1695 1036.93 11.0632C1036.03 11.2522 1035.11 11.4412 1034.19 11.6303C1032.58 11.4265 1029.26 11.2501 1033.18 10.6998C1031.68 10.8374 1030.32 10.964 1028.86 11.0963C1028.12 11.3042 1027.37 11.5121 1026.62 11.72C1027.01 11.457 1027.39 11.194 1027.77 10.931C1030.82 10.7051 1033.9 10.472 1036.93 10.2355ZM1081.62 6.3632C1081.46 6.50241 1081.3 6.64163 1081.14 6.78086C1086.38 6.01142 1094.59 4.96724 1090 6.26477C1082.91 7.13635 1075.68 7.94165 1068.56 8.67721C1068.08 8.63045 1067.6 8.5837 1067.11 8.53695C1072.47 8.38555 1070.69 7.04881 1075.38 7.01802C1076.17 7.01113 1073.96 7.76507 1078.83 6.93119C1078.64 6.8279 1078.45 6.72461 1078.26 6.62132C1079.4 6.53517 1080.52 6.44913 1081.62 6.3632ZM1126.82 0.652036C1117.81 1.85487 1127.64 -0.0942526 1129.35 0.00361681C1129.35 0.00406122 1129.35 0.00451279 1129.34 0.0049572C1134.05 0.290046 1124.18 1.341 1123.6 1.42779C1122.8 1.55669 1121.06 2.55878 1116.59 2.14366C1120.01 1.66384 1123.41 1.165 1126.82 0.652036ZM1097.45 4.56588C1098.21 4.44825 1097.81 4.68255 1098.14 4.63925C1098.14 4.63889 1098.14 4.63854 1098.15 4.63818C1102.98 4.02797 1114.37 2.29615 1115.7 2.68626C1112.15 3.29202 1096.21 5.47992 1095.2 5.16059C1095.96 4.96228 1096.7 4.76456 1097.45 4.56588ZM1063.47 8.58197C1060.46 8.46924 1067.18 7.80989 1068.92 7.81907C1069.26 7.82505 1066.59 8.69867 1063.47 8.58197ZM833.712 19.7796C827.085 20.2254 835.81 20.173 832.8 20.6317C834.073 20.5597 835.34 20.4875 836.603 20.4153C835.642 20.2035 834.679 19.9916 833.712 19.7796ZM532.592 24.7738C531.049 24.7449 531.782 24.9587 531.648 24.9631C530.634 24.966 529.675 24.7949 529.286 24.8173C522.074 25.2424 526.874 25.3856 526.947 25.4281C527.102 25.6447 525.207 25.9161 527.837 26.1424C529.431 26.0513 531.022 25.96 532.611 25.8686C533.401 25.9827 534.19 26.0967 534.979 26.2108C538.126 25.9224 534.004 25.8884 533.532 25.5477C533.35 25.4138 536.316 25.2249 532.592 24.7738ZM821.866 19.427C820.801 19.8433 818.162 20.4082 820.778 20.7119C820.781 20.7118 820.784 20.7118 820.787 20.7117C821.271 20.7671 823.226 20.7447 823.826 20.8247C828.062 20.1805 826.429 19.7056 821.866 19.427ZM561.02 23.8162C563.584 23.8794 566.164 23.9419 568.725 24.004C568.684 24.234 568.642 24.4641 568.601 24.6941C567.23 24.6468 565.856 24.5993 564.479 24.5518C563.998 24.6615 563.517 24.7713 563.035 24.881C564.747 25.1251 566.456 25.3691 568.162 25.6128C570.213 25.4996 572.258 25.386 574.298 25.2723C573.359 25.1614 572.418 25.0504 571.476 24.9394C576.472 24.7516 575.382 25.3217 579.513 25.4891C580.939 25.2605 582.363 25.0317 583.784 24.8029C585.847 24.993 587.904 25.1828 589.957 25.3724C593.397 25.2319 593.694 25.0654 591.378 24.8493C593.088 24.5506 594.948 24.9663 597.016 24.8276C597.188 24.8164 596.861 24.5581 597.013 24.5531C607.752 24.2442 607.152 24.9379 608.862 24.9458C610.064 24.9506 614.832 24.4233 614.925 24.2634C615.005 24.0484 604.966 23.341 620.684 23.1084C612.517 22.6378 603.414 23.3451 609.341 24.1239C606.815 24.0716 595.438 24.4258 594.751 24.4075C593.707 24.3814 594.069 24.0529 592.76 24.06C591.984 24.0646 589.954 24.8306 583.777 24.2538C582.99 24.3845 582.202 24.5151 581.413 24.6457C580.671 24.5541 579.928 24.4625 579.185 24.3708C580.709 23.9972 582.23 23.6235 583.748 23.2496C577.68 23.7064 572.779 23.0317 569.105 23.6842C565.937 23.6465 564.389 23.5919 565.751 23.2642C564.797 23.2742 563.843 23.2841 562.887 23.294C562.265 23.4681 561.631 23.6423 561.02 23.8162ZM802.495 20.5585C799.354 20.2936 798.235 21.0935 798.729 21.1229C801.499 21.2825 804.127 20.6962 802.495 20.5585ZM538.302 25.13C541.757 25.2961 545.224 25.4614 548.715 25.6255C548.712 25.3827 548.71 25.14 548.708 24.8972C545.219 24.9758 541.755 25.0534 538.302 25.13ZM834.667 19.2023C834.993 19.3737 835.32 19.545 835.646 19.7164C839.449 18.9268 843.168 19.7557 845.071 19.494C845.48 19.4371 844.64 19.1442 843.852 19.1018C843.39 19.0753 835.358 19.1193 834.667 19.2023ZM992.548 12.281C991.121 12.4886 989.73 12.6932 988.341 12.8971C988.406 12.6882 988.472 12.4793 988.537 12.2704C989.226 12.1918 989.912 12.1133 990.594 12.0347C991.248 12.1168 991.9 12.1989 992.548 12.281ZM976.509 13.5318C973.925 13.6593 971.512 13.7751 968.958 13.8966C978.541 13.1861 970.624 13.5277 976.476 12.9376C976.487 13.1357 976.498 13.3337 976.509 13.5318ZM951 14.4661C951.306 14.3284 951.611 14.1907 951.916 14.053C954.464 13.9245 956.879 13.801 959.462 13.6668C957.815 13.3276 956.234 12.9841 954.627 12.6412C953.709 12.687 952.787 12.7327 951.86 12.7783C951.574 13.3409 951.287 13.9035 951 14.4661ZM464.369 24.3769C462.849 24.3793 457.537 24.7828 457.764 24.9178C459.975 25.072 462.182 25.226 464.384 25.3797C464.393 25.1364 464.402 24.893 464.41 24.6496C464.722 24.7688 465.034 24.8879 465.346 25.0071C466.596 24.9081 467.846 24.8092 469.094 24.7101C469.723 24.9187 470.358 25.1272 470.996 25.3356C471.633 25.0887 472.269 24.8417 472.905 24.5947C466.817 24.2042 467.065 24.6324 465.799 24.636C465.161 24.638 464.757 24.4899 464.53 24.4156C464.477 24.4027 464.423 24.3898 464.369 24.3769ZM540.676 23.5592C533.478 23.5654 529.303 24.2424 524.07 23.7517C527.457 24.8663 549.113 23.4908 556.76 24.3625C557.549 24.1716 558.337 23.9806 559.125 23.7895C554.987 23.9945 552.098 23.6458 550.065 23.6113C548.45 23.5839 548.62 23.7741 548.496 23.7725C548.49 23.7726 548.485 23.7726 548.479 23.7727C544.692 23.7303 543.508 23.5567 540.676 23.5592ZM840.01 18.1305C838.071 17.9059 834.66 18.0468 834.634 18.4698C836.541 18.5298 838.436 18.5894 840.321 18.6488C839.931 18.5537 840.341 18.1689 840.01 18.1305ZM947.995 13.4356C946.501 13.3726 942.933 13.6676 944.491 13.9563C944.776 14.0074 948.295 13.5772 946.256 14.3367C949.692 14.1566 948.844 13.4723 947.995 13.4356ZM664.252 22.8569C665.538 22.8232 666.821 22.7893 668.101 22.7553C668.396 22.5799 668.692 22.4046 668.987 22.2292C667.413 22.4386 665.835 22.6479 664.252 22.8569ZM856.358 17.2771C858.102 18.0496 860.988 17.1352 864.172 17.7052C865.344 17.6679 866.487 17.6314 867.675 17.5929C867.678 17.5928 867.681 17.5927 867.684 17.5926C867.708 17.3641 867.731 17.1356 867.755 16.9071C863.974 17.0326 860.206 17.1549 856.358 17.2771ZM584.703 23.5577C585.493 23.6544 586.281 23.7511 587.069 23.8477C588.468 23.7082 589.864 23.5686 591.257 23.4288C590.502 23.3494 589.745 23.27 588.988 23.1906C587.563 23.3131 586.134 23.4354 584.703 23.5577ZM877.007 16.4479C872.927 16.4982 871.41 17.2803 876.635 17.0845C878.81 17.0017 881.314 16.3923 877.007 16.4479ZM385.762 25.0512C387.171 25.1074 388.578 25.1634 389.984 25.2194C390.462 25.0651 390.94 24.9107 391.418 24.7564C389.535 24.8548 387.65 24.9531 385.762 25.0512ZM967.462 12.5135C967.303 12.6746 967.145 12.8356 966.986 12.9967C965.705 13.0346 964.497 13.068 963.24 13.1036C963.545 12.936 963.851 12.7684 964.155 12.6008C965.253 12.5723 966.331 12.5445 967.462 12.5135ZM395.238 25.105C396.369 25.1292 397.5 25.1534 398.629 25.1775C399.388 25.1001 400.145 25.0227 400.903 24.9452C399.847 24.8764 398.791 24.8076 397.733 24.7387C396.902 24.8608 396.07 24.9829 395.238 25.105ZM915.957 14.9239C914.383 14.8103 908.037 15.656 913.772 15.5531C917.405 15.4869 916.193 14.9413 915.957 14.9239ZM924.463 14.3615C918.379 14.2857 923.074 15.8515 930.118 14.3772C922.962 14.8642 924.808 14.3663 924.463 14.3615ZM977.28 10.7869C977.432 10.7793 977.574 11.0265 978.782 10.9681C983.067 10.7608 988.868 10.5239 991.964 10.3542C994.854 10.1967 1000.03 9.82417 1005.37 9.44902C1014.01 8.84695 1023.35 8.20047 1024.97 8.53901C1025.53 8.65496 1024.3 9.20482 1024.52 9.21293C1025.15 9.23672 1029.02 8.73585 1028.32 9.12679C1024.52 9.39609 1020.8 9.65117 1017.07 9.89899C1017.98 9.5974 1018.84 9.29863 1019.77 8.99444C1010.49 9.74864 1013.48 9.52815 1010.88 10.2242C1009.31 10.124 1007.71 10.0239 1006.09 9.9239C1005.86 9.9515 1005.63 9.97911 1005.41 10.0067C1002.28 10.3956 998.93 10.794 995.801 11.1744C996.568 10.9758 997.331 10.7772 998.09 10.5786C992.941 10.6106 994.367 10.7078 991.528 11.2465C991.513 11.0953 991.498 10.9441 991.483 10.7929C986.512 11.4582 985.506 11.0581 984.399 11.117C982.105 11.239 979.386 13.1995 970.72 11.8829C967.156 12.9371 967.078 11.1893 965.042 12.1882C958.893 11.5442 970.558 11.2809 976.043 11.0037C976.046 11.0035 976.049 11.0034 976.052 11.0032C976.471 10.9826 975.799 10.8569 977.28 10.7869ZM945.878 13.3258C949.562 12.357 934.854 12.9972 939.773 13.8992C940.507 13.901 941.238 13.9028 941.967 13.9045C943.282 13.7115 944.588 13.5185 945.886 13.3254C945.883 13.3255 945.88 13.3256 945.878 13.3258ZM808.083 18.1114C794.542 18.8327 802.277 19.0609 806.819 18.4838C807.745 18.3685 808.249 18.2329 808.083 18.1114ZM530.344 23.0465C530.146 23.143 529.947 23.2394 529.749 23.3358C534.334 23.2074 543.12 23.4912 542.989 22.8537C538.794 22.919 534.579 22.9832 530.344 23.0465ZM566.426 22.2811C565.445 22.253 561.418 22.2038 561.906 22.4376C563.654 22.5889 565.398 22.74 567.139 22.8909C567.948 22.7766 568.756 22.6622 569.563 22.5478C568.434 22.5239 566.692 22.2884 566.426 22.2811Z" fill="#0F3255"/>
</svg>
